<svg aria-roledescription="flowchart-v2" role="graphics-document document" viewBox="-5220.8525390625 -1127.2734375 984.814453125 1327.19775390625" style="max-width: 984.814453125px;" class="flowchart" xmlns="http://www.w3.org/2000/svg" width="100%" id="export-svg"><style xmlns="http://www.w3.org/1999/xhtml">@import url("https://cdnjs.cloudflare.com/ajax/libs/font-awesome/6.2.0/css/all.min.css"); p {margin: 0;}</style><style>#export-svg{font-family:arial,sans-serif;font-size:14px;fill:#333;}@keyframes edge-animation-frame{from{stroke-dashoffset:0;}}@keyframes dash{to{stroke-dashoffset:0;}}#export-svg .edge-animation-slow{stroke-dasharray:9,5!important;stroke-dashoffset:900;animation:dash 50s linear infinite;stroke-linecap:round;}#export-svg .edge-animation-fast{stroke-dasharray:9,5!important;stroke-dashoffset:900;animation:dash 20s linear infinite;stroke-linecap:round;}#export-svg .error-icon{fill:#ffffff;}#export-svg .error-text{fill:#000000;stroke:#000000;}#export-svg .edge-thickness-normal{stroke-width:1px;}#export-svg .edge-thickness-thick{stroke-width:3.5px;}#export-svg .edge-pattern-solid{stroke-dasharray:0;}#export-svg .edge-thickness-invisible{stroke-width:0;fill:none;}#export-svg .edge-pattern-dashed{stroke-dasharray:3;}#export-svg .edge-pattern-dotted{stroke-dasharray:2;}#export-svg .marker{fill:#000000;stroke:#000000;}#export-svg .marker.cross{stroke:#000000;}#export-svg svg{font-family:arial,sans-serif;font-size:14px;}#export-svg p{margin:0;}#export-svg .label{font-family:arial,sans-serif;color:#333;}#export-svg .cluster-label text{fill:#000000;}#export-svg .cluster-label span{color:#000000;}#export-svg .cluster-label span p{background-color:transparent;}#export-svg .label text,#export-svg span{fill:#333;color:#333;}#export-svg .node rect,#export-svg .node circle,#export-svg .node ellipse,#export-svg .node polygon,#export-svg .node path{fill:#ffffff;stroke:#000000;stroke-width:1px;}#export-svg .rough-node .label text,#export-svg .node .label text,#export-svg .image-shape .label,#export-svg .icon-shape .label{text-anchor:middle;}#export-svg .node .katex path{fill:#000;stroke:#000;stroke-width:1px;}#export-svg .rough-node .label,#export-svg .node .label,#export-svg .image-shape .label,#export-svg .icon-shape .label{text-align:center;}#export-svg .node.clickable{cursor:pointer;}#export-svg .root .anchor path{fill:#000000!important;stroke-width:0;stroke:#000000;}#export-svg .arrowheadPath{fill:#000000;}#export-svg .edgePath .path{stroke:#000000;stroke-width:1px;}#export-svg .flowchart-link{stroke:#000000;fill:none;}#export-svg .edgeLabel{background-color:#E9E9F1;text-align:center;}#export-svg .edgeLabel p{background-color:#E9E9F1;}#export-svg .edgeLabel rect{opacity:0.5;background-color:#E9E9F1;fill:#E9E9F1;}#export-svg .labelBkg{background-color:rgba(233, 233, 241, 0.5);}#export-svg .cluster rect{fill:#ffffff;stroke:hsl(0, 0%, 90%);stroke-width:1px;}#export-svg .cluster text{fill:#000000;}#export-svg .cluster span{color:#000000;}#export-svg div.mermaidTooltip{position:absolute;text-align:center;max-width:200px;padding:2px;font-family:arial,sans-serif;font-size:12px;background:#ffffff;border:1px solid hsl(0, 0%, 90%);border-radius:2px;pointer-events:none;z-index:100;}#export-svg .flowchartTitleText{text-anchor:middle;font-size:18px;fill:#333;}#export-svg rect.text{fill:none;stroke-width:0;}#export-svg .icon-shape,#export-svg .image-shape{background-color:#E9E9F1;text-align:center;}#export-svg .icon-shape p,#export-svg .image-shape p{background-color:#E9E9F1;padding:2px;}#export-svg .icon-shape rect,#export-svg .image-shape rect{opacity:0.5;background-color:#E9E9F1;fill:#E9E9F1;}#export-svg .node .neo-node{stroke:#000000;}#export-svg [data-look="neo"].node rect,#export-svg [data-look="neo"].cluster rect,#export-svg [data-look="neo"].node polygon{stroke:url(#export-svg-gradient);filter:drop-shadow( 0px 1px 2px rgba(0, 0, 0, 0.25));}#export-svg [data-look="neo"].node path{stroke:url(#export-svg-gradient);}#export-svg [data-look="neo"].node .outer-path{filter:drop-shadow( 0px 1px 2px rgba(0, 0, 0, 0.25));}#export-svg [data-look="neo"].node .neo-line path{stroke:hsl(240, 50%, 86.0784313725%);filter:none;}#export-svg [data-look="neo"].node circle{stroke:url(#export-svg-gradient);filter:drop-shadow( 0px 1px 2px rgba(0, 0, 0, 0.25));}#export-svg [data-look="neo"].node circle .state-start{fill:#000000;}#export-svg [data-look="neo"].statediagram-cluster rect{fill:#ffffff;stroke:url(#export-svg-gradient);stroke-width:1px;}#export-svg [data-look="neo"].icon-shape .icon{fill:url(#export-svg-gradient);filter:drop-shadow( 0px 1px 2px rgba(0, 0, 0, 0.25));}#export-svg [data-look="neo"].icon-shape .icon-neo path{stroke:url(#export-svg-gradient);filter:drop-shadow( 0px 1px 2px rgba(0, 0, 0, 0.25));}#export-svg :root{--mermaid-font-family:"trebuchet ms",verdana,arial,sans-serif;}#export-svg .Pine&gt;*{stroke-width:1px!important;stroke-dasharray:none!important;stroke:#254336!important;fill:#27654A!important;color:#FFFFFF!important;}#export-svg .Pine span{stroke-width:1px!important;stroke-dasharray:none!important;stroke:#254336!important;fill:#27654A!important;color:#FFFFFF!important;}#export-svg .Pine tspan{fill:#FFFFFF!important;}#export-svg .Sky&gt;*{stroke-width:1px!important;stroke-dasharray:none!important;stroke:#374D7C!important;fill:#E2EBFF!important;color:#374D7C!important;}#export-svg .Sky span{stroke-width:1px!important;stroke-dasharray:none!important;stroke:#374D7C!important;fill:#E2EBFF!important;color:#374D7C!important;}#export-svg .Sky tspan{fill:#374D7C!important;}#export-svg .Ash&gt;*{stroke-width:1px!important;stroke-dasharray:none!important;stroke:#999999!important;fill:#EEEEEE!important;color:#000000!important;}#export-svg .Ash span{stroke-width:1px!important;stroke-dasharray:none!important;stroke:#999999!important;fill:#EEEEEE!important;color:#000000!important;}#export-svg .Ash tspan{fill:#000000!important;}#export-svg .Aqua&gt;*{stroke-width:1px!important;stroke-dasharray:none!important;stroke:#46EDC8!important;fill:#DEFFF8!important;color:#378E7A!important;}#export-svg .Aqua span{stroke-width:1px!important;stroke-dasharray:none!important;stroke:#46EDC8!important;fill:#DEFFF8!important;color:#378E7A!important;}#export-svg .Aqua tspan{fill:#378E7A!important;}</style><g><marker orient="auto" markerHeight="14" markerWidth="10.5" markerUnits="userSpaceOnUse" refY="7" refX="7.75" viewBox="0 0 11.5 14" class="marker flowchart-v2" id="export-svg_flowchart-v2-pointEnd"><path style="stroke-width: 0; stroke-dasharray: 1, 0;" class="arrowMarkerPath" d="M 0 0 L 11.5 7 L 0 14 z"/></marker><marker orient="auto" markerHeight="14" markerWidth="11.5" markerUnits="userSpaceOnUse" refY="7" refX="4" viewBox="0 0 11.5 14" class="marker flowchart-v2" id="export-svg_flowchart-v2-pointStart"><polygon style="stroke-width: 0; stroke-dasharray: 1, 0;" class="arrowMarkerPath" points="0,7 11.5,14 11.5,0"/></marker><marker orient="auto" markerHeight="14" markerWidth="10.5" markerUnits="userSpaceOnUse" refY="7" refX="11.5" viewBox="0 0 11.5 14" class="marker flowchart-v2" id="export-svg_flowchart-v2-pointEnd-margin"><path style="stroke-width: 0; stroke-dasharray: 1, 0;" class="arrowMarkerPath" d="M 0 0 L 11.5 7 L 0 14 z"/></marker><marker orient="auto" markerHeight="14" markerWidth="11.5" markerUnits="userSpaceOnUse" refY="7" refX="1" viewBox="0 0 11.5 14" class="marker flowchart-v2" id="export-svg_flowchart-v2-pointStart-margin"><polygon style="stroke-width: 0; stroke-dasharray: 1, 0;" class="arrowMarkerPath" points="0,7 11.5,14 11.5,0"/></marker><marker orient="auto" markerHeight="14" markerWidth="14" markerUnits="userSpaceOnUse" refX="10.75" refY="5" viewBox="0 0 10 10" class="marker flowchart-v2" id="export-svg_flowchart-v2-circleEnd"><circle style="stroke-width: 0; stroke-dasharray: 1, 0;" class="arrowMarkerPath" r="5" cy="5" cx="5"/></marker><marker orient="auto" markerHeight="14" markerWidth="14" markerUnits="userSpaceOnUse" refY="5" refX="0" viewBox="0 0 10 10" class="marker flowchart-v2" id="export-svg_flowchart-v2-circleStart"><circle style="stroke-width: 0; stroke-dasharray: 1, 0;" class="arrowMarkerPath" r="5" cy="5" cx="5"/></marker><marker orient="auto" markerHeight="14" markerWidth="14" markerUnits="userSpaceOnUse" refX="12.25" refY="5" viewBox="0 0 10 10" class="marker flowchart-v2" id="export-svg_flowchart-v2-circleEnd-margin"><circle style="stroke-width: 0; stroke-dasharray: 1, 0;" class="arrowMarkerPath" r="5" cy="5" cx="5"/></marker><marker orient="auto" markerHeight="14" markerWidth="14" markerUnits="userSpaceOnUse" refY="5" refX="-2" viewBox="0 0 10 10" class="marker flowchart-v2" id="export-svg_flowchart-v2-circleStart-margin"><circle style="stroke-width: 0; stroke-dasharray: 1, 0;" class="arrowMarkerPath" r="5" cy="5" cx="5"/></marker><marker orient="auto" markerHeight="12" markerWidth="12" markerUnits="userSpaceOnUse" refY="7.5" refX="17.7" viewBox="0 0 15 15" class="marker cross flowchart-v2" id="export-svg_flowchart-v2-crossEnd"><path style="stroke-width: 2.5;" class="arrowMarkerPath" d="M 1,1 L 14,14 M 1,14 L 14,1"/></marker><marker orient="auto" markerHeight="12" markerWidth="12" markerUnits="userSpaceOnUse" refY="7.5" refX="-3.5" viewBox="0 0 15 15" class="marker cross flowchart-v2" id="export-svg_flowchart-v2-crossStart"><path style="stroke-width: 2.5; stroke-dasharray: 1, 0;" class="arrowMarkerPath" d="M 1,1 L 14,14 M 1,14 L 14,1"/></marker><marker orient="auto" markerHeight="12" markerWidth="12" markerUnits="userSpaceOnUse" refY="7.5" refX="17.7" viewBox="0 0 15 15" class="marker cross flowchart-v2" id="export-svg_flowchart-v2-crossEnd-margin"><path style="stroke-width: 2.5;" class="arrowMarkerPath" d="M 1,1 L 14,14 M 1,14 L 14,1"/></marker><marker orient="auto" markerHeight="12" markerWidth="12" markerUnits="userSpaceOnUse" refY="7.5" refX="-3.5" viewBox="0 0 15 15" class="marker cross flowchart-v2" id="export-svg_flowchart-v2-crossStart-margin"><path style="stroke-width: 2.5; stroke-dasharray: 1, 0;" class="arrowMarkerPath" d="M 1,1 L 14,14 M 1,14 L 14,1"/></marker><g class="root"><g class="clusters"/><g class="nodes"><g transform="translate(-4764.34455871582, -841.4069366455078)" data-look="neo" data-et="node" data-node="true" data-id="CustomerExists" id="flowchart-CustomerExists-0" class="node default Sky"><polygon style="stroke-width:1px !important;stroke-dasharray:none !important;stroke:#374D7C !important;fill:#E2EBFF !important" transform="translate(-84.0742950439453,84.0742950439453)" class="label-container" points="84.0742950439453,0 168.1485900878906,-84.0742950439453 84.0742950439453,-168.1485900878906 0,-84.0742950439453"/><g transform="translate(-54.07421875, -10.5)" style="color:#374D7C !important" class="label"><rect/><foreignObject height="21" width="108.1484375"><div xmlns="http://www.w3.org/1999/xhtml" style="color: rgb(55, 77, 124) !important; display: table-cell; white-space: normal; line-height: 1.5; max-width: 108.149px; text-align: center;"><span class="nodeLabel" style="color:#374D7C !important"><p>Customer exists?</p></span></div></foreignObject></g></g><g transform="translate(-5093.936515808105, -745.2984161376951)" data-look="neo" data-et="node" data-node="true" data-id="UpdateCustomer" id="flowchart-UpdateCustomer-1" class="node default Sky"><rect stroke="url(#gradient)" height="44.9998779296875" width="189.9687347412109" y="-22.49993896484375" x="-94.98436737060545" data-id="UpdateCustomer" style="stroke-width:1px !important;stroke-dasharray:none !important;stroke:#374D7C !important;fill:#E2EBFF !important" class="basic label-container"/><g transform="translate(-78.98046875, -10.49993896484375)" style="color:#374D7C !important" class="label"><rect/><foreignObject height="20.9998779296875" width="157.9609375"><div xmlns="http://www.w3.org/1999/xhtml" style="color: rgb(55, 77, 124) !important; display: table-cell; white-space: normal; line-height: 1.5; max-width: 157.969px; text-align: center;"><span class="nodeLabel" style="color:#374D7C !important"><p>Update existing customer</p></span></div></foreignObject></g></g><g transform="translate(-4504.7952880859375, -739.4443511962893)" data-look="neo" data-et="node" data-node="true" data-id="CreateNewCustomer" id="flowchart-CreateNewCustomer-3" class="node default Sky Aqua"><rect stroke="url(#gradient)" height="44.9998779296875" width="165.055419921875" y="-22.49993896484375" x="-82.5277099609375" data-id="CreateNewCustomer" style="stroke-width:1px !important;stroke-dasharray:none !important;stroke:#46EDC8 !important;fill:#DEFFF8 !important" class="basic label-container"/><g transform="translate(-66.52734375, -10.49993896484375)" style="color:#378E7A !important" class="label"><rect/><foreignObject height="20.9998779296875" width="133.0546875"><div xmlns="http://www.w3.org/1999/xhtml" style="color: rgb(55, 142, 122) !important; display: table-cell; white-space: normal; line-height: 1.5; max-width: 133.055px; text-align: center;"><span class="nodeLabel" style="color:#378E7A !important"><p>Create new customer</p></span></div></foreignObject></g></g><g transform="translate(-4561.889511108398, -615.6886749267583)" data-look="neo" data-et="node" data-node="true" data-id="CheckLoggedIn" id="flowchart-CheckLoggedIn-5" class="node default Sky Aqua"><polygon style="stroke-width:1px !important;stroke-dasharray:none !important;stroke:#46EDC8 !important;fill:#DEFFF8 !important" transform="translate(-79.0312957763672,79.0312957763672)" class="label-container" points="79.0312957763672,0 158.0625915527344,-79.0312957763672 79.0312957763672,-158.0625915527344 0,-79.0312957763672"/><g transform="translate(-49.03125, -10.5)" style="color:#378E7A !important" class="label"><rect/><foreignObject height="21" width="98.0625"><div xmlns="http://www.w3.org/1999/xhtml" style="color: rgb(55, 142, 122) !important; display: table-cell; white-space: normal; line-height: 1.5; max-width: 98.0626px; text-align: center;"><span class="nodeLabel" style="color:#378E7A !important"><p>User logged in?</p></span></div></foreignObject></g></g><g transform="translate(-4778.353713989258, -637.1541137695312)" data-look="neo" data-et="node" data-node="true" data-id="UseCurrentUser" id="flowchart-UseCurrentUser-7" class="node default Sky Aqua"><rect stroke="url(#gradient)" height="45" width="166.6248474121094" y="-22.5" x="-83.3124237060547" data-id="UseCurrentUser" style="stroke-width:1px !important;stroke-dasharray:none !important;stroke:#46EDC8 !important;fill:#DEFFF8 !important" class="basic label-container"/><g transform="translate(-67.30859375, -10.5)" style="color:#378E7A !important" class="label"><rect/><foreignObject height="21" width="134.6171875"><div xmlns="http://www.w3.org/1999/xhtml" style="color: rgb(55, 142, 122) !important; display: table-cell; white-space: normal; line-height: 1.5; max-width: 134.625px; text-align: center;"><span class="nodeLabel" style="color:#378E7A !important"><p>Use current user data</p></span></div></foreignObject></g></g><g transform="translate(-4458.6170654296875, -444.7063751220703)" data-look="neo" data-et="node" data-node="true" data-id="CheckShouldCreateUser" id="flowchart-CheckShouldCreateUser-9" class="node default Sky Aqua"><polygon style="stroke-width:1px !important;stroke-dasharray:none !important;stroke:#46EDC8 !important;fill:#DEFFF8 !important" transform="translate(-105.74609375,105.74609375)" class="label-container" points="105.74609375,0 211.4921875,-105.74609375 105.74609375,-211.4921875 0,-105.74609375"/><g transform="translate(-75.74609375, -10.5)" style="color:#378E7A !important" class="label"><rect/><foreignObject height="21" width="151.4921875"><div xmlns="http://www.w3.org/1999/xhtml" style="color: rgb(55, 142, 122) !important; display: table; white-space: break-spaces; line-height: 1.5; max-width: 151.492px; text-align: center; width: 151.492px;"><span class="nodeLabel" style="color:#378E7A !important"><p>Should create WP user?</p></span></div></foreignObject></g></g><g transform="translate(-4632.030746459961, -334.9597320556643)" data-look="neo" data-et="node" data-node="true" data-id="CreateWPUser" id="flowchart-CreateWPUser-11" class="node default Sky Aqua"><rect stroke="url(#gradient)" height="45" width="178.0155944824219" y="-22.5" x="-89.00779724121095" data-id="CreateWPUser" style="stroke-width:1px !important;stroke-dasharray:none !important;stroke:#46EDC8 !important;fill:#DEFFF8 !important" class="basic label-container"/><g transform="translate(-73.00390625, -10.5)" style="color:#378E7A !important" class="label"><rect/><foreignObject height="21" width="146.0078125"><div xmlns="http://www.w3.org/1999/xhtml" style="color: rgb(55, 142, 122) !important; display: table-cell; white-space: normal; line-height: 1.5; max-width: 146.016px; text-align: center;"><span class="nodeLabel" style="color:#378E7A !important"><p>Create WordPress user</p></span></div></foreignObject></g></g><g transform="translate(-4316.065338134766, -344.21815490722634)" data-look="neo" data-et="node" data-node="true" data-id="SkipUserCreation" id="flowchart-SkipUserCreation-13" class="node default Sky Aqua"><rect stroke="url(#gradient)" height="45" width="144.0545043945312" y="-22.5" x="-72.0272521972656" data-id="SkipUserCreation" style="stroke-width:1px !important;stroke-dasharray:none !important;stroke:#46EDC8 !important;fill:#DEFFF8 !important" class="basic label-container"/><g transform="translate(-56.0234375, -10.5)" style="color:#378E7A !important" class="label"><rect/><foreignObject height="21" width="112.046875"><div xmlns="http://www.w3.org/1999/xhtml" style="color: rgb(55, 142, 122) !important; display: table-cell; white-space: normal; line-height: 1.5; max-width: 112.055px; text-align: center;"><span class="nodeLabel" style="color:#378E7A !important"><p>Skip user creation</p></span></div></foreignObject></g></g><g transform="translate(-4585.446105957031, -184.4924468994143)" data-look="neo" data-et="node" data-node="true" data-id="CreateCustomerRecord" id="flowchart-CreateCustomerRecord-15" class="node default Sky Aqua"><rect stroke="url(#gradient)" height="45" width="179.0548095703125" y="-22.5" x="-89.52740478515625" data-id="CreateCustomerRecord" style="stroke-width:1px !important;stroke-dasharray:none !important;stroke:#46EDC8 !important;fill:#DEFFF8 !important" class="basic label-container"/><g transform="translate(-73.52734375, -10.5)" style="color:#378E7A !important" class="label"><rect/><foreignObject height="21" width="147.0546875"><div xmlns="http://www.w3.org/1999/xhtml" style="color: rgb(55, 142, 122) !important; display: table-cell; white-space: normal; line-height: 1.5; max-width: 147.055px; text-align: center;"><span class="nodeLabel" style="color:#378E7A !important"><p>Create customer record</p></span></div></foreignObject></g></g><g transform="translate(-4577.730667114258, -63.82844543457031)" data-look="neo" data-et="node" data-node="true" data-id="CreateBillingAddress" id="flowchart-CreateBillingAddress-21" class="node default Sky Aqua"><rect stroke="url(#gradient)" height="45" width="228.8755187988281" y="-22.5" x="-114.43775939941405" data-id="CreateBillingAddress" style="stroke-width:1px !important;stroke-dasharray:none !important;stroke:#46EDC8 !important;fill:#DEFFF8 !important" class="basic label-container"/><g transform="translate(-98.4375, -10.5)" style="color:#378E7A !important" class="label"><rect/><foreignObject height="21" width="196.875"><div xmlns="http://www.w3.org/1999/xhtml" style="color: rgb(55, 142, 122) !important; display: table-cell; white-space: normal; line-height: 1.5; max-width: 196.876px; text-align: center;"><span class="nodeLabel" style="color:#378E7A !important"><p>Create customer billing address</p></span></div></foreignObject></g></g><g transform="translate(-4639.454040527344, 12.654464721679688)" data-look="neo" data-et="node" data-node="true" data-id="CreateShippingAddress" id="flowchart-CreateShippingAddress-23" class="node default Sky Aqua"><rect stroke="url(#gradient)" height="45" width="183.7572021484375" y="-22.5" x="-91.87860107421875" data-id="CreateShippingAddress" style="stroke-width:1px !important;stroke-dasharray:none !important;stroke:#46EDC8 !important;fill:#DEFFF8 !important" class="basic label-container"/><g transform="translate(-75.875, -10.5)" style="color:#378E7A !important" class="label"><rect/><foreignObject height="21" width="151.75"><div xmlns="http://www.w3.org/1999/xhtml" style="color: rgb(55, 142, 122) !important; display: table-cell; white-space: normal; line-height: 1.5; max-width: 151.757px; text-align: center;"><span class="nodeLabel" style="color:#378E7A !important"><p>Create shipping address</p></span></div></foreignObject></g></g><g transform="translate(-4812.209808349609, 108.63835144042969)" data-look="neo" data-et="node" data-node="true" data-id="ValidateProductItems" id="flowchart-ValidateProductItems-25" class="node default Sky"><g class="basic label-container outer-path"><path style="stroke-width:1px !important;stroke-dasharray:none !important;stroke:#374D7C !important;fill:#E2EBFF !important" fill="#E2EBFF" stroke-width="0" stroke="none" d="M-75.3480529785156 -22.5 C-72.93738522527863 -17.67866449352606, -70.52671747204165 -12.857328987052123, -64.0980529785156 0 C-66.87595910423046 5.55581225142973, -69.65386522994532 11.11162450285946, -75.3480529785156 22.5 C-19.40291390698063 22.5, 36.54222516455434 22.5, 75.3480529785156 22.5 C75.3480529785156 9.237166387894291, 75.3480529785156 -4.025667224211418, 75.3480529785156 -22.5 C38.004217062602514 -22.5, 0.6603811466894314 -22.5, -75.3480529785156 -22.5"/><path style="stroke-width:1px !important;stroke-dasharray:none !important;stroke:#374D7C !important;fill:#E2EBFF !important" fill="none" stroke-width="1" stroke="#374D7C" d="M-75.3480529785156 -22.5 C-72.50255188720728 -16.808997817383364, -69.65705079589895 -11.117995634766725, -64.0980529785156 0 M-75.3480529785156 -22.5 C-71.95066348961893 -15.705221022206672, -68.55327400072227 -8.910442044413346, -64.0980529785156 0 M-64.0980529785156 0 C-68.2793455364443 8.36258511585739, -72.46063809437298 16.72517023171478, -75.3480529785156 22.5 M-64.0980529785156 0 C-68.14057536412984 8.085044771228485, -72.18309774974408 16.17008954245697, -75.3480529785156 22.5 M-75.3480529785156 22.5 C-25.479357221405024 22.5, 24.389338535705548 22.5, 75.3480529785156 22.5 M-75.3480529785156 22.5 C-24.74333764652699 22.5, 25.86137768546162 22.5, 75.3480529785156 22.5 M75.3480529785156 22.5 C75.3480529785156 8.651375805719063, 75.3480529785156 -5.197248388561874, 75.3480529785156 -22.5 M75.3480529785156 22.5 C75.3480529785156 7.283731600611548, 75.3480529785156 -7.932536798776905, 75.3480529785156 -22.5 M75.3480529785156 -22.5 C43.07524448228638 -22.5, 10.802435986057162 -22.5, -75.3480529785156 -22.5 M75.3480529785156 -22.5 C36.697267329610575 -22.5, -1.9535183192944459 -22.5, -75.3480529785156 -22.5"/></g><g transform="translate(-48.72265625, -10.5)" style="color:#374D7C !important" class="label"><rect/><foreignObject height="21" width="108.6953125"><div xmlns="http://www.w3.org/1999/xhtml" style="color: rgb(55, 77, 124) !important; display: table-cell; white-space: normal; line-height: 1.5; max-width: 108.696px; text-align: center;"><span class="nodeLabel" style="color:#374D7C !important"><p>Validate Products</p></span></div></foreignObject></g></g><g transform="translate(-5091.816284179687, -468.6294708251953)" data-look="neo" data-et="node" data-node="true" data-id="CreateShippingAddr" id="flowchart-CreateShippingAddr-26" class="node default Sky"><rect stroke="url(#gradient)" height="63.4674072265625" width="242.072509765625" y="-31.73370361328125" x="-121.0362548828125" data-id="CreateShippingAddr" style="stroke-width:1px !important;stroke-dasharray:none !important;stroke:#374D7C !important;fill:#E2EBFF !important" class="basic label-container"/><g transform="translate(-87.5546875, -10.5)" style="color:#374D7C !important" class="label"><rect/><foreignObject height="21" width="175.109375"><div xmlns="http://www.w3.org/1999/xhtml" style="color: rgb(55, 77, 124) !important; display: table-cell; white-space: normal; line-height: 1.5; max-width: 210.073px; text-align: center;"><span class="nodeLabel" style="color:#374D7C !important"><p>get/Create shipping address</p></span></div></foreignObject></g></g><g transform="translate(-5090.743644714355, -328.4353790283203)" data-look="neo" data-et="node" data-node="true" data-id="CustomerComplete" id="flowchart-CustomerComplete-27" class="node default Sky"><rect stroke="url(#gradient)" height="45" width="184.5239105224609" y="-22.5" x="-92.26195526123045" data-id="CustomerComplete" style="stroke-width:1px !important;stroke-dasharray:none !important;stroke:#374D7C !important;fill:#E2EBFF !important" class="basic label-container"/><g transform="translate(-76.26171875, -10.5)" style="color:#374D7C !important" class="label"><rect/><foreignObject height="21" width="152.5234375"><div xmlns="http://www.w3.org/1999/xhtml" style="color: rgb(55, 77, 124) !important; display: table-cell; white-space: normal; line-height: 1.5; max-width: 152.524px; text-align: center;"><span class="nodeLabel" style="color:#374D7C !important"><p>Customer data complete</p></span></div></foreignObject></g></g><g transform="translate(-4764.726196289063, -960.8728790283199)" data-look="neo" data-et="node" data-node="true" data-id="n11" id="flowchart-n11-30" class="node default"><g style="" class="anchor"><path fill="black" stroke-width="0" stroke="none" d="M1 0 C1 0.05788272588897678, 0.9948589828812233 0.11664482044598554, 0.984807753012208 0.17364817766693033 C0.9747565231431927 0.23065153488787513, 0.9594896789905366 0.2876281729368238, 0.9396926207859084 0.3420201433256687 C0.9198955625812802 0.3964121137145136, 0.8949667667289272 0.44987208893985486, 0.8660254037844387 0.49999999999999994 C0.8370840408399502 0.550127911060145, 0.8032507421352946 0.5984468691667095, 0.766044443118978 0.6427876096865393 C0.7288381441026615 0.687128350206369, 0.687128350206369 0.7288381441026615, 0.6427876096865394 0.766044443118978 C0.5984468691667097 0.8032507421352946, 0.5501279110601452 0.8370840408399502, 0.5000000000000001 0.8660254037844386 C0.44987208893985503 0.8949667667289269, 0.3964121137145138 0.9198955625812801, 0.3420201433256688 0.9396926207859083 C0.28762817293682386 0.9594896789905365, 0.2306515348878752 0.9747565231431927, 0.17364817766693041 0.984807753012208 C0.11664482044598562 0.9948589828812233, 0.057882725888976846 1, 6.123233995736766e-17 1 C-0.05788272588897672 1, -0.11664482044598551 0.9948589828812233, -0.1736481776669303 0.984807753012208 C-0.2306515348878751 0.9747565231431927, -0.2876281729368238 0.9594896789905366, -0.3420201433256687 0.9396926207859084 C-0.3964121137145136 0.9198955625812802, -0.44987208893985475 0.894966766728927, -0.4999999999999998 0.8660254037844387 C-0.5501279110601448 0.8370840408399504, -0.5984468691667094 0.8032507421352948, -0.642787609686539 0.7660444431189783 C-0.6871283502063686 0.7288381441026619, -0.7288381441026611 0.6871283502063694, -0.7660444431189777 0.6427876096865398 C-0.8032507421352942 0.5984468691667102, -0.8370840408399499 0.5501279110601458, -0.8660254037844383 0.5000000000000008 C-0.8949667667289266 0.44987208893985575, -0.9198955625812797 0.39641211371451457, -0.939692620785908 0.3420201433256697 C-0.9594896789905363 0.28762817293682486, -0.9747565231431925 0.2306515348878763, -0.9848077530122078 0.17364817766693158 C-0.9948589828812231 0.11664482044598687, -0.9999999999999999 0.05788272588897817, -1 1.4547323094649232e-15 C-1 -0.05788272588897526, -0.9948589828812235 -0.11664482044598398, -0.9848077530122084 -0.17364817766692872 C-0.9747565231431932 -0.23065153488787346, -0.959489678990537 -0.2876281729368221, -0.939692620785909 -0.342020143325667 C-0.9198955625812809 -0.3964121137145119, -0.8949667667289279 -0.44987208893985314, -0.8660254037844397 -0.4999999999999982 C-0.8370840408399515 -0.5501279110601434, -0.8032507421352959 -0.5984468691667079, -0.7660444431189795 -0.6427876096865376 C-0.728838144102663 -0.6871283502063673, -0.6871283502063705 -0.72883814410266, -0.6427876096865409 -0.7660444431189767 C-0.5984468691667113 -0.8032507421352933, -0.5501279110601469 -0.837084040839949, -0.5000000000000019 -0.8660254037844375 C-0.4498720889398569 -0.8949667667289259, -0.39641211371451585 -0.9198955625812792, -0.34202014332567104 -0.9396926207859075 C-0.28762817293682624 -0.9594896789905358, -0.23065153488787765 -0.9747565231431922, -0.17364817766693294 -0.9848077530122076 C-0.11664482044598823 -0.994858982881223, -0.05788272588897956 -0.9999999999999998, -2.848232278972479e-15 -1 C0.05788272588897387 -1.0000000000000002, 0.1166448204459826 -0.9948589828812237, 0.17364817766692733 -0.9848077530122086 C0.23065153488787207 -0.9747565231431935, 0.2876281729368207 -0.9594896789905376, 0.34202014332566566 -0.9396926207859095 C0.3964121137145106 -0.9198955625812815, 0.44987208893985187 -0.8949667667289286, 0.499999999999997 -0.8660254037844404 C0.5501279110601421 -0.8370840408399521, 0.5984468691667068 -0.8032507421352967, 0.6427876096865365 -0.7660444431189803 C0.6871283502063662 -0.728838144102664, 0.7288381441026589 -0.6871283502063718, 0.7660444431189756 -0.6427876096865422 C0.8032507421352922 -0.5984468691667127, 0.837084040839948 -0.5501279110601485, 0.8660254037844366 -0.5000000000000036 C0.8949667667289252 -0.44987208893985864, 0.9198955625812785 -0.39641211371451757, 0.9396926207859069 -0.34202014332567277 C0.9594896789905353 -0.28762817293682796, 0.9747565231431917 -0.23065153488787946, 0.9848077530122072 -0.17364817766693477 C0.9948589828812228 -0.11664482044599009, 0.9974679588353679 -0.028941362944493815, 1 -4.6858214583300965e-15 C1.0025320411646321 0.02894136294448444, 1.002532041164632 -0.02894136294448917, 1 0"/></g></g><g transform="translate(-4764.337432861328, -923.7068634033199)" data-look="neo" data-et="node" data-node="true" data-id="n12" id="flowchart-n12-31" class="node default"><g style="" class="anchor"><path fill="black" stroke-width="0" stroke="none" d="M1 0 C1 0.05788272588897678, 0.9948589828812233 0.11664482044598554, 0.984807753012208 0.17364817766693033 C0.9747565231431927 0.23065153488787513, 0.9594896789905366 0.2876281729368238, 0.9396926207859084 0.3420201433256687 C0.9198955625812802 0.3964121137145136, 0.8949667667289272 0.44987208893985486, 0.8660254037844387 0.49999999999999994 C0.8370840408399502 0.550127911060145, 0.8032507421352946 0.5984468691667095, 0.766044443118978 0.6427876096865393 C0.7288381441026615 0.687128350206369, 0.687128350206369 0.7288381441026615, 0.6427876096865394 0.766044443118978 C0.5984468691667097 0.8032507421352946, 0.5501279110601452 0.8370840408399502, 0.5000000000000001 0.8660254037844386 C0.44987208893985503 0.8949667667289269, 0.3964121137145138 0.9198955625812801, 0.3420201433256688 0.9396926207859083 C0.28762817293682386 0.9594896789905365, 0.2306515348878752 0.9747565231431927, 0.17364817766693041 0.984807753012208 C0.11664482044598562 0.9948589828812233, 0.057882725888976846 1, 6.123233995736766e-17 1 C-0.05788272588897672 1, -0.11664482044598551 0.9948589828812233, -0.1736481776669303 0.984807753012208 C-0.2306515348878751 0.9747565231431927, -0.2876281729368238 0.9594896789905366, -0.3420201433256687 0.9396926207859084 C-0.3964121137145136 0.9198955625812802, -0.44987208893985475 0.894966766728927, -0.4999999999999998 0.8660254037844387 C-0.5501279110601448 0.8370840408399504, -0.5984468691667094 0.8032507421352948, -0.642787609686539 0.7660444431189783 C-0.6871283502063686 0.7288381441026619, -0.7288381441026611 0.6871283502063694, -0.7660444431189777 0.6427876096865398 C-0.8032507421352942 0.5984468691667102, -0.8370840408399499 0.5501279110601458, -0.8660254037844383 0.5000000000000008 C-0.8949667667289266 0.44987208893985575, -0.9198955625812797 0.39641211371451457, -0.939692620785908 0.3420201433256697 C-0.9594896789905363 0.28762817293682486, -0.9747565231431925 0.2306515348878763, -0.9848077530122078 0.17364817766693158 C-0.9948589828812231 0.11664482044598687, -0.9999999999999999 0.05788272588897817, -1 1.4547323094649232e-15 C-1 -0.05788272588897526, -0.9948589828812235 -0.11664482044598398, -0.9848077530122084 -0.17364817766692872 C-0.9747565231431932 -0.23065153488787346, -0.959489678990537 -0.2876281729368221, -0.939692620785909 -0.342020143325667 C-0.9198955625812809 -0.3964121137145119, -0.8949667667289279 -0.44987208893985314, -0.8660254037844397 -0.4999999999999982 C-0.8370840408399515 -0.5501279110601434, -0.8032507421352959 -0.5984468691667079, -0.7660444431189795 -0.6427876096865376 C-0.728838144102663 -0.6871283502063673, -0.6871283502063705 -0.72883814410266, -0.6427876096865409 -0.7660444431189767 C-0.5984468691667113 -0.8032507421352933, -0.5501279110601469 -0.837084040839949, -0.5000000000000019 -0.8660254037844375 C-0.4498720889398569 -0.8949667667289259, -0.39641211371451585 -0.9198955625812792, -0.34202014332567104 -0.9396926207859075 C-0.28762817293682624 -0.9594896789905358, -0.23065153488787765 -0.9747565231431922, -0.17364817766693294 -0.9848077530122076 C-0.11664482044598823 -0.994858982881223, -0.05788272588897956 -0.9999999999999998, -2.848232278972479e-15 -1 C0.05788272588897387 -1.0000000000000002, 0.1166448204459826 -0.9948589828812237, 0.17364817766692733 -0.9848077530122086 C0.23065153488787207 -0.9747565231431935, 0.2876281729368207 -0.9594896789905376, 0.34202014332566566 -0.9396926207859095 C0.3964121137145106 -0.9198955625812815, 0.44987208893985187 -0.8949667667289286, 0.499999999999997 -0.8660254037844404 C0.5501279110601421 -0.8370840408399521, 0.5984468691667068 -0.8032507421352967, 0.6427876096865365 -0.7660444431189803 C0.6871283502063662 -0.728838144102664, 0.7288381441026589 -0.6871283502063718, 0.7660444431189756 -0.6427876096865422 C0.8032507421352922 -0.5984468691667127, 0.837084040839948 -0.5501279110601485, 0.8660254037844366 -0.5000000000000036 C0.8949667667289252 -0.44987208893985864, 0.9198955625812785 -0.39641211371451757, 0.9396926207859069 -0.34202014332567277 C0.9594896789905353 -0.28762817293682796, 0.9747565231431917 -0.23065153488787946, 0.9848077530122072 -0.17364817766693477 C0.9948589828812228 -0.11664482044599009, 0.9974679588353679 -0.028941362944493815, 1 -4.6858214583300965e-15 C1.0025320411646321 0.02894136294448444, 1.002532041164632 -0.02894136294448917, 1 0"/></g></g><g transform="translate(-4760.302734375, -1075.5474472045898)" data-look="neo" data-et="node" data-node="true" data-id="n13" id="flowchart-n13-32" class="node default"><g style="" class="anchor"><path fill="black" stroke-width="0" stroke="none" d="M1 0 C1 0.05788272588897678, 0.9948589828812233 0.11664482044598554, 0.984807753012208 0.17364817766693033 C0.9747565231431927 0.23065153488787513, 0.9594896789905366 0.2876281729368238, 0.9396926207859084 0.3420201433256687 C0.9198955625812802 0.3964121137145136, 0.8949667667289272 0.44987208893985486, 0.8660254037844387 0.49999999999999994 C0.8370840408399502 0.550127911060145, 0.8032507421352946 0.5984468691667095, 0.766044443118978 0.6427876096865393 C0.7288381441026615 0.687128350206369, 0.687128350206369 0.7288381441026615, 0.6427876096865394 0.766044443118978 C0.5984468691667097 0.8032507421352946, 0.5501279110601452 0.8370840408399502, 0.5000000000000001 0.8660254037844386 C0.44987208893985503 0.8949667667289269, 0.3964121137145138 0.9198955625812801, 0.3420201433256688 0.9396926207859083 C0.28762817293682386 0.9594896789905365, 0.2306515348878752 0.9747565231431927, 0.17364817766693041 0.984807753012208 C0.11664482044598562 0.9948589828812233, 0.057882725888976846 1, 6.123233995736766e-17 1 C-0.05788272588897672 1, -0.11664482044598551 0.9948589828812233, -0.1736481776669303 0.984807753012208 C-0.2306515348878751 0.9747565231431927, -0.2876281729368238 0.9594896789905366, -0.3420201433256687 0.9396926207859084 C-0.3964121137145136 0.9198955625812802, -0.44987208893985475 0.894966766728927, -0.4999999999999998 0.8660254037844387 C-0.5501279110601448 0.8370840408399504, -0.5984468691667094 0.8032507421352948, -0.642787609686539 0.7660444431189783 C-0.6871283502063686 0.7288381441026619, -0.7288381441026611 0.6871283502063694, -0.7660444431189777 0.6427876096865398 C-0.8032507421352942 0.5984468691667102, -0.8370840408399499 0.5501279110601458, -0.8660254037844383 0.5000000000000008 C-0.8949667667289266 0.44987208893985575, -0.9198955625812797 0.39641211371451457, -0.939692620785908 0.3420201433256697 C-0.9594896789905363 0.28762817293682486, -0.9747565231431925 0.2306515348878763, -0.9848077530122078 0.17364817766693158 C-0.9948589828812231 0.11664482044598687, -0.9999999999999999 0.05788272588897817, -1 1.4547323094649232e-15 C-1 -0.05788272588897526, -0.9948589828812235 -0.11664482044598398, -0.9848077530122084 -0.17364817766692872 C-0.9747565231431932 -0.23065153488787346, -0.959489678990537 -0.2876281729368221, -0.939692620785909 -0.342020143325667 C-0.9198955625812809 -0.3964121137145119, -0.8949667667289279 -0.44987208893985314, -0.8660254037844397 -0.4999999999999982 C-0.8370840408399515 -0.5501279110601434, -0.8032507421352959 -0.5984468691667079, -0.7660444431189795 -0.6427876096865376 C-0.728838144102663 -0.6871283502063673, -0.6871283502063705 -0.72883814410266, -0.6427876096865409 -0.7660444431189767 C-0.5984468691667113 -0.8032507421352933, -0.5501279110601469 -0.837084040839949, -0.5000000000000019 -0.8660254037844375 C-0.4498720889398569 -0.8949667667289259, -0.39641211371451585 -0.9198955625812792, -0.34202014332567104 -0.9396926207859075 C-0.28762817293682624 -0.9594896789905358, -0.23065153488787765 -0.9747565231431922, -0.17364817766693294 -0.9848077530122076 C-0.11664482044598823 -0.994858982881223, -0.05788272588897956 -0.9999999999999998, -2.848232278972479e-15 -1 C0.05788272588897387 -1.0000000000000002, 0.1166448204459826 -0.9948589828812237, 0.17364817766692733 -0.9848077530122086 C0.23065153488787207 -0.9747565231431935, 0.2876281729368207 -0.9594896789905376, 0.34202014332566566 -0.9396926207859095 C0.3964121137145106 -0.9198955625812815, 0.44987208893985187 -0.8949667667289286, 0.499999999999997 -0.8660254037844404 C0.5501279110601421 -0.8370840408399521, 0.5984468691667068 -0.8032507421352967, 0.6427876096865365 -0.7660444431189803 C0.6871283502063662 -0.728838144102664, 0.7288381441026589 -0.6871283502063718, 0.7660444431189756 -0.6427876096865422 C0.8032507421352922 -0.5984468691667127, 0.837084040839948 -0.5501279110601485, 0.8660254037844366 -0.5000000000000036 C0.8949667667289252 -0.44987208893985864, 0.9198955625812785 -0.39641211371451757, 0.9396926207859069 -0.34202014332567277 C0.9594896789905353 -0.28762817293682796, 0.9747565231431917 -0.23065153488787946, 0.9848077530122072 -0.17364817766693477 C0.9948589828812228 -0.11664482044599009, 0.9974679588353679 -0.028941362944493815, 1 -4.6858214583300965e-15 C1.0025320411646321 0.02894136294448444, 1.002532041164632 -0.02894136294448917, 1 0"/></g></g><g transform="translate(-4762.032470703125, -1005.2881622314458)" data-look="neo" data-et="node" data-node="true" data-id="n14" id="flowchart-n14-33" class="node default"><g style="" class="anchor"><path fill="black" stroke-width="0" stroke="none" d="M1 0 C1 0.05788272588897678, 0.9948589828812233 0.11664482044598554, 0.984807753012208 0.17364817766693033 C0.9747565231431927 0.23065153488787513, 0.9594896789905366 0.2876281729368238, 0.9396926207859084 0.3420201433256687 C0.9198955625812802 0.3964121137145136, 0.8949667667289272 0.44987208893985486, 0.8660254037844387 0.49999999999999994 C0.8370840408399502 0.550127911060145, 0.8032507421352946 0.5984468691667095, 0.766044443118978 0.6427876096865393 C0.7288381441026615 0.687128350206369, 0.687128350206369 0.7288381441026615, 0.6427876096865394 0.766044443118978 C0.5984468691667097 0.8032507421352946, 0.5501279110601452 0.8370840408399502, 0.5000000000000001 0.8660254037844386 C0.44987208893985503 0.8949667667289269, 0.3964121137145138 0.9198955625812801, 0.3420201433256688 0.9396926207859083 C0.28762817293682386 0.9594896789905365, 0.2306515348878752 0.9747565231431927, 0.17364817766693041 0.984807753012208 C0.11664482044598562 0.9948589828812233, 0.057882725888976846 1, 6.123233995736766e-17 1 C-0.05788272588897672 1, -0.11664482044598551 0.9948589828812233, -0.1736481776669303 0.984807753012208 C-0.2306515348878751 0.9747565231431927, -0.2876281729368238 0.9594896789905366, -0.3420201433256687 0.9396926207859084 C-0.3964121137145136 0.9198955625812802, -0.44987208893985475 0.894966766728927, -0.4999999999999998 0.8660254037844387 C-0.5501279110601448 0.8370840408399504, -0.5984468691667094 0.8032507421352948, -0.642787609686539 0.7660444431189783 C-0.6871283502063686 0.7288381441026619, -0.7288381441026611 0.6871283502063694, -0.7660444431189777 0.6427876096865398 C-0.8032507421352942 0.5984468691667102, -0.8370840408399499 0.5501279110601458, -0.8660254037844383 0.5000000000000008 C-0.8949667667289266 0.44987208893985575, -0.9198955625812797 0.39641211371451457, -0.939692620785908 0.3420201433256697 C-0.9594896789905363 0.28762817293682486, -0.9747565231431925 0.2306515348878763, -0.9848077530122078 0.17364817766693158 C-0.9948589828812231 0.11664482044598687, -0.9999999999999999 0.05788272588897817, -1 1.4547323094649232e-15 C-1 -0.05788272588897526, -0.9948589828812235 -0.11664482044598398, -0.9848077530122084 -0.17364817766692872 C-0.9747565231431932 -0.23065153488787346, -0.959489678990537 -0.2876281729368221, -0.939692620785909 -0.342020143325667 C-0.9198955625812809 -0.3964121137145119, -0.8949667667289279 -0.44987208893985314, -0.8660254037844397 -0.4999999999999982 C-0.8370840408399515 -0.5501279110601434, -0.8032507421352959 -0.5984468691667079, -0.7660444431189795 -0.6427876096865376 C-0.728838144102663 -0.6871283502063673, -0.6871283502063705 -0.72883814410266, -0.6427876096865409 -0.7660444431189767 C-0.5984468691667113 -0.8032507421352933, -0.5501279110601469 -0.837084040839949, -0.5000000000000019 -0.8660254037844375 C-0.4498720889398569 -0.8949667667289259, -0.39641211371451585 -0.9198955625812792, -0.34202014332567104 -0.9396926207859075 C-0.28762817293682624 -0.9594896789905358, -0.23065153488787765 -0.9747565231431922, -0.17364817766693294 -0.9848077530122076 C-0.11664482044598823 -0.994858982881223, -0.05788272588897956 -0.9999999999999998, -2.848232278972479e-15 -1 C0.05788272588897387 -1.0000000000000002, 0.1166448204459826 -0.9948589828812237, 0.17364817766692733 -0.9848077530122086 C0.23065153488787207 -0.9747565231431935, 0.2876281729368207 -0.9594896789905376, 0.34202014332566566 -0.9396926207859095 C0.3964121137145106 -0.9198955625812815, 0.44987208893985187 -0.8949667667289286, 0.499999999999997 -0.8660254037844404 C0.5501279110601421 -0.8370840408399521, 0.5984468691667068 -0.8032507421352967, 0.6427876096865365 -0.7660444431189803 C0.6871283502063662 -0.728838144102664, 0.7288381441026589 -0.6871283502063718, 0.7660444431189756 -0.6427876096865422 C0.8032507421352922 -0.5984468691667127, 0.837084040839948 -0.5501279110601485, 0.8660254037844366 -0.5000000000000036 C0.8949667667289252 -0.44987208893985864, 0.9198955625812785 -0.39641211371451757, 0.9396926207859069 -0.34202014332567277 C0.9594896789905353 -0.28762817293682796, 0.9747565231431917 -0.23065153488787946, 0.9848077530122072 -0.17364817766693477 C0.9948589828812228 -0.11664482044599009, 0.9974679588353679 -0.028941362944493815, 1 -4.6858214583300965e-15 C1.0025320411646321 0.02894136294448444, 1.002532041164632 -0.02894136294448917, 1 0"/></g></g><g transform="translate(-5092.799110412598, -608.2770843505859)" data-look="neo" data-et="node" data-node="true" data-id="CreateBillingAddr" id="flowchart-CreateBillingAddr-34" class="node default Sky"><rect stroke="url(#gradient)" height="66.53253173828125" width="224.1881561279297" y="-33.266265869140625" x="-112.09407806396484" data-id="CreateBillingAddr" style="stroke-width:1px !important;stroke-dasharray:none !important;stroke:#374D7C !important;fill:#E2EBFF !important" class="basic label-container"/><g transform="translate(-79.37890625, -10.5)" style="color:#374D7C !important" class="label"><rect/><foreignObject height="21" width="158.7578125"><div xmlns="http://www.w3.org/1999/xhtml" style="color: rgb(55, 77, 124) !important; display: table-cell; white-space: normal; line-height: 1.5; max-width: 192.188px; text-align: center;"><span class="nodeLabel" style="color:#374D7C !important"><p>get/Create billing address</p></span></div></foreignObject></g></g><g transform="translate(-4821.55419921875, 132.44744873046875)" data-look="neo" data-et="node" data-node="true" data-id="n15" id="flowchart-n15-38" class="node default"><g style="" class="anchor"><path fill="black" stroke-width="0" stroke="none" d="M1 0 C1 0.05788272588897678, 0.9948589828812233 0.11664482044598554, 0.984807753012208 0.17364817766693033 C0.9747565231431927 0.23065153488787513, 0.9594896789905366 0.2876281729368238, 0.9396926207859084 0.3420201433256687 C0.9198955625812802 0.3964121137145136, 0.8949667667289272 0.44987208893985486, 0.8660254037844387 0.49999999999999994 C0.8370840408399502 0.550127911060145, 0.8032507421352946 0.5984468691667095, 0.766044443118978 0.6427876096865393 C0.7288381441026615 0.687128350206369, 0.687128350206369 0.7288381441026615, 0.6427876096865394 0.766044443118978 C0.5984468691667097 0.8032507421352946, 0.5501279110601452 0.8370840408399502, 0.5000000000000001 0.8660254037844386 C0.44987208893985503 0.8949667667289269, 0.3964121137145138 0.9198955625812801, 0.3420201433256688 0.9396926207859083 C0.28762817293682386 0.9594896789905365, 0.2306515348878752 0.9747565231431927, 0.17364817766693041 0.984807753012208 C0.11664482044598562 0.9948589828812233, 0.057882725888976846 1, 6.123233995736766e-17 1 C-0.05788272588897672 1, -0.11664482044598551 0.9948589828812233, -0.1736481776669303 0.984807753012208 C-0.2306515348878751 0.9747565231431927, -0.2876281729368238 0.9594896789905366, -0.3420201433256687 0.9396926207859084 C-0.3964121137145136 0.9198955625812802, -0.44987208893985475 0.894966766728927, -0.4999999999999998 0.8660254037844387 C-0.5501279110601448 0.8370840408399504, -0.5984468691667094 0.8032507421352948, -0.642787609686539 0.7660444431189783 C-0.6871283502063686 0.7288381441026619, -0.7288381441026611 0.6871283502063694, -0.7660444431189777 0.6427876096865398 C-0.8032507421352942 0.5984468691667102, -0.8370840408399499 0.5501279110601458, -0.8660254037844383 0.5000000000000008 C-0.8949667667289266 0.44987208893985575, -0.9198955625812797 0.39641211371451457, -0.939692620785908 0.3420201433256697 C-0.9594896789905363 0.28762817293682486, -0.9747565231431925 0.2306515348878763, -0.9848077530122078 0.17364817766693158 C-0.9948589828812231 0.11664482044598687, -0.9999999999999999 0.05788272588897817, -1 1.4547323094649232e-15 C-1 -0.05788272588897526, -0.9948589828812235 -0.11664482044598398, -0.9848077530122084 -0.17364817766692872 C-0.9747565231431932 -0.23065153488787346, -0.959489678990537 -0.2876281729368221, -0.939692620785909 -0.342020143325667 C-0.9198955625812809 -0.3964121137145119, -0.8949667667289279 -0.44987208893985314, -0.8660254037844397 -0.4999999999999982 C-0.8370840408399515 -0.5501279110601434, -0.8032507421352959 -0.5984468691667079, -0.7660444431189795 -0.6427876096865376 C-0.728838144102663 -0.6871283502063673, -0.6871283502063705 -0.72883814410266, -0.6427876096865409 -0.7660444431189767 C-0.5984468691667113 -0.8032507421352933, -0.5501279110601469 -0.837084040839949, -0.5000000000000019 -0.8660254037844375 C-0.4498720889398569 -0.8949667667289259, -0.39641211371451585 -0.9198955625812792, -0.34202014332567104 -0.9396926207859075 C-0.28762817293682624 -0.9594896789905358, -0.23065153488787765 -0.9747565231431922, -0.17364817766693294 -0.9848077530122076 C-0.11664482044598823 -0.994858982881223, -0.05788272588897956 -0.9999999999999998, -2.848232278972479e-15 -1 C0.05788272588897387 -1.0000000000000002, 0.1166448204459826 -0.9948589828812237, 0.17364817766692733 -0.9848077530122086 C0.23065153488787207 -0.9747565231431935, 0.2876281729368207 -0.9594896789905376, 0.34202014332566566 -0.9396926207859095 C0.3964121137145106 -0.9198955625812815, 0.44987208893985187 -0.8949667667289286, 0.499999999999997 -0.8660254037844404 C0.5501279110601421 -0.8370840408399521, 0.5984468691667068 -0.8032507421352967, 0.6427876096865365 -0.7660444431189803 C0.6871283502063662 -0.728838144102664, 0.7288381441026589 -0.6871283502063718, 0.7660444431189756 -0.6427876096865422 C0.8032507421352922 -0.5984468691667127, 0.837084040839948 -0.5501279110601485, 0.8660254037844366 -0.5000000000000036 C0.8949667667289252 -0.44987208893985864, 0.9198955625812785 -0.39641211371451757, 0.9396926207859069 -0.34202014332567277 C0.9594896789905353 -0.28762817293682796, 0.9747565231431917 -0.23065153488787946, 0.9848077530122072 -0.17364817766693477 C0.9948589828812228 -0.11664482044599009, 0.9974679588353679 -0.028941362944493815, 1 -4.6858214583300965e-15 C1.0025320411646321 0.02894136294448444, 1.002532041164632 -0.02894136294448917, 1 0"/></g></g><g transform="translate(-4820.1298828125, 190.92431640625)" data-look="neo" data-et="node" data-node="true" data-id="n16" id="flowchart-n16-39" class="node default"><g style="" class="anchor"><path fill="black" stroke-width="0" stroke="none" d="M1 0 C1 0.05788272588897678, 0.9948589828812233 0.11664482044598554, 0.984807753012208 0.17364817766693033 C0.9747565231431927 0.23065153488787513, 0.9594896789905366 0.2876281729368238, 0.9396926207859084 0.3420201433256687 C0.9198955625812802 0.3964121137145136, 0.8949667667289272 0.44987208893985486, 0.8660254037844387 0.49999999999999994 C0.8370840408399502 0.550127911060145, 0.8032507421352946 0.5984468691667095, 0.766044443118978 0.6427876096865393 C0.7288381441026615 0.687128350206369, 0.687128350206369 0.7288381441026615, 0.6427876096865394 0.766044443118978 C0.5984468691667097 0.8032507421352946, 0.5501279110601452 0.8370840408399502, 0.5000000000000001 0.8660254037844386 C0.44987208893985503 0.8949667667289269, 0.3964121137145138 0.9198955625812801, 0.3420201433256688 0.9396926207859083 C0.28762817293682386 0.9594896789905365, 0.2306515348878752 0.9747565231431927, 0.17364817766693041 0.984807753012208 C0.11664482044598562 0.9948589828812233, 0.057882725888976846 1, 6.123233995736766e-17 1 C-0.05788272588897672 1, -0.11664482044598551 0.9948589828812233, -0.1736481776669303 0.984807753012208 C-0.2306515348878751 0.9747565231431927, -0.2876281729368238 0.9594896789905366, -0.3420201433256687 0.9396926207859084 C-0.3964121137145136 0.9198955625812802, -0.44987208893985475 0.894966766728927, -0.4999999999999998 0.8660254037844387 C-0.5501279110601448 0.8370840408399504, -0.5984468691667094 0.8032507421352948, -0.642787609686539 0.7660444431189783 C-0.6871283502063686 0.7288381441026619, -0.7288381441026611 0.6871283502063694, -0.7660444431189777 0.6427876096865398 C-0.8032507421352942 0.5984468691667102, -0.8370840408399499 0.5501279110601458, -0.8660254037844383 0.5000000000000008 C-0.8949667667289266 0.44987208893985575, -0.9198955625812797 0.39641211371451457, -0.939692620785908 0.3420201433256697 C-0.9594896789905363 0.28762817293682486, -0.9747565231431925 0.2306515348878763, -0.9848077530122078 0.17364817766693158 C-0.9948589828812231 0.11664482044598687, -0.9999999999999999 0.05788272588897817, -1 1.4547323094649232e-15 C-1 -0.05788272588897526, -0.9948589828812235 -0.11664482044598398, -0.9848077530122084 -0.17364817766692872 C-0.9747565231431932 -0.23065153488787346, -0.959489678990537 -0.2876281729368221, -0.939692620785909 -0.342020143325667 C-0.9198955625812809 -0.3964121137145119, -0.8949667667289279 -0.44987208893985314, -0.8660254037844397 -0.4999999999999982 C-0.8370840408399515 -0.5501279110601434, -0.8032507421352959 -0.5984468691667079, -0.7660444431189795 -0.6427876096865376 C-0.728838144102663 -0.6871283502063673, -0.6871283502063705 -0.72883814410266, -0.6427876096865409 -0.7660444431189767 C-0.5984468691667113 -0.8032507421352933, -0.5501279110601469 -0.837084040839949, -0.5000000000000019 -0.8660254037844375 C-0.4498720889398569 -0.8949667667289259, -0.39641211371451585 -0.9198955625812792, -0.34202014332567104 -0.9396926207859075 C-0.28762817293682624 -0.9594896789905358, -0.23065153488787765 -0.9747565231431922, -0.17364817766693294 -0.9848077530122076 C-0.11664482044598823 -0.994858982881223, -0.05788272588897956 -0.9999999999999998, -2.848232278972479e-15 -1 C0.05788272588897387 -1.0000000000000002, 0.1166448204459826 -0.9948589828812237, 0.17364817766692733 -0.9848077530122086 C0.23065153488787207 -0.9747565231431935, 0.2876281729368207 -0.9594896789905376, 0.34202014332566566 -0.9396926207859095 C0.3964121137145106 -0.9198955625812815, 0.44987208893985187 -0.8949667667289286, 0.499999999999997 -0.8660254037844404 C0.5501279110601421 -0.8370840408399521, 0.5984468691667068 -0.8032507421352967, 0.6427876096865365 -0.7660444431189803 C0.6871283502063662 -0.728838144102664, 0.7288381441026589 -0.6871283502063718, 0.7660444431189756 -0.6427876096865422 C0.8032507421352922 -0.5984468691667127, 0.837084040839948 -0.5501279110601485, 0.8660254037844366 -0.5000000000000036 C0.8949667667289252 -0.44987208893985864, 0.9198955625812785 -0.39641211371451757, 0.9396926207859069 -0.34202014332567277 C0.9594896789905353 -0.28762817293682796, 0.9747565231431917 -0.23065153488787946, 0.9848077530122072 -0.17364817766693477 C0.9948589828812228 -0.11664482044599009, 0.9974679588353679 -0.028941362944493815, 1 -4.6858214583300965e-15 C1.0025320411646321 0.02894136294448444, 1.002532041164632 -0.02894136294448917, 1 0"/></g></g><g transform="translate(-4758.627746582031, -983.9643096923828)" data-look="neo" data-et="node" data-node="true" data-id="GetCreateCustomer" id="flowchart-GetCreateCustomer-40" class="node default Sky"><path transform="translate(-83.30609942086133, 16.5 )" style="stroke-width:1px !important;stroke-dasharray:none !important;stroke:#374D7C !important;fill:#E2EBFF !important" class="basic label-container outer-path" d="M0,0&#10;    a5.221518987341772,16.5 0,0,1 0,-33&#10;    l166.61219884172266,0&#10;    a5.221518987341772,16.5 0,0,1 0,33&#10;    M166.61219884172266,-33&#10;    a5.221518987341772,16.5 0,0,0 0,33&#10;    l-166.61219884172266,0"/><g transform="translate(-79.91683148734177, -10.5)" style="color:#374D7C !important" class="label"><rect/><foreignObject height="21" width="149.390625"><div xmlns="http://www.w3.org/1999/xhtml" style="color: rgb(55, 77, 124) !important; display: table-cell; white-space: normal; line-height: 1.5; max-width: 149.391px; text-align: center;"><span class="nodeLabel" style="color:#374D7C !important"><p>Get or Create Customer</p></span></div></foreignObject></g></g><g transform="translate(-4400.29153442383, -1008.7733464241028)" data-look="neo" data-et="node" data-node="true" data-id="n7" id="flowchart-n7-41" class="icon-shape default"><g transform="translate(0,-16.5)"><path fill="none" stroke-width="0" stroke="none" d="M-94 -94 L94 -94 L94 94 L-94 94"/></g><g transform="translate(-26.125,85.5)" style="" class="label"><rect/><foreignObject height="25" width="52.25"><div class="labelBkg" xmlns="http://www.w3.org/1999/xhtml" style="display: table-cell; white-space: normal; line-height: 1.5; max-width: 200px; text-align: center;"><span class="nodeLabel"><p>Product</p></span></div></foreignObject></g><g><path fill="transparent" stroke-width="0" stroke="none" d="M-94 -110.5 L94 -110.5 L94 110.5 L-94 110.5"/></g><g style="color : #AA00FF;" transform="translate(-94.00101804733276,-110.50000524520874)"><g><svg viewBox="0 0 48 48" height="188" width="188" xmlns="http://www.w3.org/2000/svg"><path style="fill: #AA00FF" d="M19 18h10v-2H19zm4.375-4.219-5-4 1.25-1.562 3.375 2.7V2h2v8.919l3.375-2.7 1.25 1.562-5 4a1 1 0 01-1.25 0m5.686 17.393-3.67-6.241 14.232-7.598 3.968 6.779zM39 36.526c-1.442.946-7.847 4.055-14 6.91V28.215l2.805 4.769a1 1 0 001.3.393L39 28.569zM9 28.501l9.891 4.874a1 1 0 001.304-.391L23 28.215v15.168L9 36.394zm-.628-11.168 14.237 7.6-3.667 6.237-14.531-7.159zm37.491 6.703-5-8.541a1 1 0 00-.375-.349l.008-.014-7-4-.992 1.736 5.429 3.102L24 23.408l-13.822-7.379 6.269-3.134-.894-1.79-8 4 .008.016a.97.97 0 00-.421.369l-5 8.43a1.003 1.003 0 00.418 1.407L7 27.516v9.497c0 .379.214.725.554.894l16 7.988.004-.009c.139.07.289.114.442.114q.217 0 .418-.092C41 38.274 41 37.754 41 36.967v-9.37l4.438-2.156a1.003 1.003 0 00.425-1.405" fill-rule="evenodd" fill="#E7157B"/></svg></g></g></g></g><g class="edgePaths"><path marker-end="url(#export-svg_flowchart-v2-pointEnd-margin)" data-points="W3sieCI6LTQ4MjkuOTM3ODI5ODAzNDU3LCJ5IjotODIyLjkyNTgzNjM5NTI1MzQsInBvcyI6ImwifSx7IngiOi01MDE2Ljc3NTgzNDU0MTc5NiwieSI6LTgyMi45MjU4MzYzOTUyNTM0fSx7IngiOi01MDE2Ljc3NTgzNDU0MTc5NiwieSI6LTc2Ny43OTgzNTUxMDI1Mzg4LCJwb3MiOiJ0In1d" data-id="L_CustomerExists_UpdateCustomer_0" data-et="edge" data-edge="true" style="stroke-dasharray: 0 0 226.3015899658203 9; stroke-dashoffset: 0;;" class="edge-thickness-normal edge-pattern-solid edge-thickness-normal edge-pattern-solid flowchart-link" id="L_CustomerExists_UpdateCustomer_0" d="M-4829.937829803457,-822.9258363952534L-5009.70476672993,-822.9258363952534Q-5016.775834541796,-822.9258363952534 -5016.775834541796,-815.854768583388L-5016.775834541796,-771.7983551025388"/><path marker-end="url(#export-svg_flowchart-v2-pointEnd-margin)" data-points="W3sieCI6LTQ3MDQuNDgyOTM3Mzk1NjA0LCJ5IjotODE4LjE5NDE4NjYyNzgzNDMsInBvcyI6InIifSx7IngiOi00NTYyLjA2OTY1NzEyODM5OSwieSI6LTgxOC4xOTQxODY2Mjc4MzQzfSx7IngiOi00NTYyLjA2OTY1NzEyODM5OSwieSI6LTc2MS45NDQyOTAxNjExMzMsInBvcyI6InQifV0=" data-id="L_CustomerExists_CreateNewCustomer_0" data-et="edge" data-edge="true" style="stroke-dasharray: 0 0 182.99923706054688 9; stroke-dashoffset: 0;;" class="edge-thickness-normal edge-pattern-solid edge-thickness-normal edge-pattern-solid flowchart-link" id="L_CustomerExists_CreateNewCustomer_0" d="M-4704.482937395604,-818.1941866278343L-4569.140724940265,-818.1941866278343Q-4562.069657128399,-818.1941866278343 -4562.069657128399,-811.1231188159688L-4562.069657128399,-765.944290161133"/><path marker-end="url(#export-svg_flowchart-v2-pointEnd-margin)" data-points="W3sieCI6LTQ1MTUuMTc1NTUxNjE3ODczLCJ5IjotNzE2Ljk0NDQxMjIzMTQ0NTUsInBvcyI6ImIifSx7IngiOi00NTE1LjE3NTU1MTYxNzg3MywieSI6LTY5My42MDcxMDU0NzE3NzIyfSx7IngiOi00NTM3LjQzOTM4NDg5Mzc0LCJ5IjotNjkzLjYwNzEwNTQ3MTc3MjJ9LHsieCI6LTQ1MzcuNDM5Mzg0ODkzNzQsInkiOi02NzAuMjY5Nzk4NzEyMDk5LCJwb3MiOiJ0In1d" data-id="L_CreateNewCustomer_CheckLoggedIn_0" data-et="edge" data-edge="true" style="stroke-dasharray: 0 0 50.61004638671875 9; stroke-dashoffset: 0;;" class="edge-thickness-normal edge-pattern-solid edge-thickness-normal edge-pattern-solid flowchart-link" id="L_CreateNewCustomer_CheckLoggedIn_0" d="M-4515.175551617873,-716.9444122314455L-4515.175551617873,-700.6781732836378Q-4515.175551617873,-693.6071054717722 -4522.2466194297385,-693.6071054717722L-4530.368317081874,-693.6071054717722Q-4537.43938489374,-693.6071054717722 -4537.43938489374,-686.5360376599067L-4537.43938489374,-674.269798712099"/><path marker-end="url(#export-svg_flowchart-v2-pointEnd-margin)" data-points="W3sieCI6LTQ2MzQuMjkwNzUyMjA2Mzg5LCJ5IjotNjIzLjMxODY4MzgyODc3NDIsInBvcyI6ImwifSx7IngiOi00NjY0LjY2NjAyMTI0NDc5NiwieSI6LTYyMy4zMTg2ODM4Mjg3NzQyfSx7IngiOi00NjY0LjY2NjAyMTI0NDc5NiwieSI6LTYyOC44OTI1MjcyNzExNDAxfSx7IngiOi00Njk1LjA0MTI5MDI4MzIwMywieSI6LTYyOC44OTI1MjcyNzExNDAxLCJwb3MiOiJyIn1d" data-id="L_CheckLoggedIn_UseCurrentUser_0" data-et="edge" data-edge="true" style="stroke-dasharray: 0 0 51.22449493408203 9; stroke-dashoffset: 0;;" class="edge-thickness-normal edge-pattern-solid edge-thickness-normal edge-pattern-solid flowchart-link" id="L_CheckLoggedIn_UseCurrentUser_0" d="M-4634.290752206389,-623.3186838287742L-4661.879099523613,-623.3186838287742Q-4664.666021244796,-623.3186838287742 -4664.666021244796,-626.1056055499571L-4664.666021244796,-626.1056055499571Q-4664.666021244796,-628.8925272711401 -4667.452942965979,-628.8925272711401L-4691.041290283203,-628.8925272711401"/><path marker-end="url(#export-svg_flowchart-v2-pointEnd-margin)" data-points="W3sieCI6LTQ1MzIuNjI5NzM0NjE2NTI4LCJ5IjotNTY2LjkxNzEwOTg2NTg5MzYsInBvcyI6ImIifSx7IngiOi00NTMyLjYyOTczNDYxNjUyOCwieSI6LTUzOS4wMjUxMTE0NzU2MTk1fSx7IngiOi00NDk4LjkzNjQ4MjI1MTU2OSwieSI6LTUzOS4wMjUxMTE0NzU2MTk1fSx7IngiOi00NDk4LjkzNjQ4MjI1MTU2OSwieSI6LTUxMS4xMzMxMTMwODUzNDUzNywicG9zIjoidCJ9XQ==" data-id="L_CheckLoggedIn_CheckShouldCreateUser_0" data-et="edge" data-edge="true" style="stroke-dasharray: 0 0 71.14910888671875 9; stroke-dashoffset: 0;;" class="edge-thickness-normal edge-pattern-solid edge-thickness-normal edge-pattern-solid flowchart-link" id="L_CheckLoggedIn_CheckShouldCreateUser_0" d="M-4532.629734616528,-566.9171098658936L-4532.629734616528,-546.096179287485Q-4532.629734616528,-539.0251114756195 -4525.558666804663,-539.0251114756195L-4506.007550063435,-539.0251114756195Q-4498.936482251569,-539.0251114756195 -4498.936482251569,-531.954043663754L-4498.936482251569,-515.1331130853454"/><path marker-end="url(#export-svg_flowchart-v2-pointEnd-margin)" data-points="W3sieCI6LTQ1MjMuODc4Mjg4MDU0ODE3LCJ5IjotNDA0LjIyMTU2NTAzMjM1NTgsInBvcyI6ImwifSx7IngiOi00NTk2LjQ3Nzg3OTI5MDk4MywieSI6LTQwNC4yMjE1NjUwMzIzNTU4fSx7IngiOi00NTk2LjQ3Nzg3OTI5MDk4MywieSI6LTM1Ny40NTk3MzIwNTU2NjQzLCJwb3MiOiJ0In1d" data-id="L_CheckShouldCreateUser_CreateWPUser_0" data-et="edge" data-edge="true" style="stroke-dasharray: 0 0 103.69747161865234 9; stroke-dashoffset: 0;;" class="edge-thickness-normal edge-pattern-solid edge-thickness-normal edge-pattern-solid flowchart-link" id="L_CheckShouldCreateUser_CreateWPUser_0" d="M-4523.878288054817,-404.2215650323558L-4589.406811479117,-404.2215650323558Q-4596.477879290983,-404.2215650323558 -4596.477879290983,-397.1504972204903L-4596.477879290983,-361.4597320556643"/><path marker-end="url(#export-svg_flowchart-v2-pointEnd-margin)" data-points="W3sieCI6LTQzOTcuMDkzMTg5MjIxMTA1LCJ5IjotNDAxLjQ4NDIxODYxNTgxMDMsInBvcyI6InIifSx7IngiOi00MzQ3Ljk4MzY0NTE0OTA0NCwieSI6LTQwMS40ODQyMTg2MTU4MTAzfSx7IngiOi00MzQ3Ljk4MzY0NTE0OTA0NCwieSI6LTM2Ni43MTgxNTQ5MDcyMjYzNCwicG9zIjoidCJ9XQ==" data-id="L_CheckShouldCreateUser_SkipUserCreation_0" data-et="edge" data-edge="true" style="stroke-dasharray: 0 0 68.21170043945312 9; stroke-dashoffset: 0;;" class="edge-thickness-normal edge-pattern-solid edge-thickness-normal edge-pattern-solid flowchart-link" id="L_CheckShouldCreateUser_SkipUserCreation_0" d="M-4397.093189221105,-401.4842186158103L-4355.0547129609095,-401.4842186158103Q-4347.983645149044,-401.4842186158103 -4347.983645149044,-394.4131508039448L-4347.983645149044,-370.71815490722634"/><path marker-end="url(#export-svg_flowchart-v2-pointEnd-margin)" data-points="W3sieCI6LTQ2MjUuMDY0NzUxMDkyNzQ2LCJ5IjotMzEyLjQ1OTczMjA1NTY2NDMsInBvcyI6ImIifSx7IngiOi00NjI1LjA2NDc1MTA5Mjc0NiwieSI6LTI1OS43MjYwODk0Nzc1MzkzfSx7IngiOi00NTkyLjQxMjEwMTMyNDI0NywieSI6LTI1OS43MjYwODk0Nzc1MzkzfSx7IngiOi00NTkyLjQxMjEwMTMyNDI0NywieSI6LTIwNi45OTI0NDY4OTk0MTQzLCJwb3MiOiJ0In1d" data-id="L_CreateWPUser_CreateCustomerRecord_0" data-et="edge" data-edge="true" style="stroke-dasharray: 0 0 119.79217529296875 9; stroke-dashoffset: 0;;" class="edge-thickness-normal edge-pattern-solid edge-thickness-normal edge-pattern-solid flowchart-link" id="L_CreateWPUser_CreateCustomerRecord_0" d="M-4625.064751092746,-312.4597320556643L-4625.064751092746,-266.79715728940477Q-4625.064751092746,-259.7260894775393 -4617.99368328088,-259.7260894775393L-4599.483169136112,-259.7260894775393Q-4592.412101324247,-259.7260894775393 -4592.412101324247,-252.65502166567381L-4592.412101324247,-210.9924468994143"/><path marker-end="url(#export-svg_flowchart-v2-pointEnd-margin)" data-points="W3sieCI6LTQ3NjguNzY1MDQ4NzcxMDY5LCJ5IjotNjE0LjY1NDExMzc2OTUzMTIsInBvcyI6ImIifSx7IngiOi00NzY4Ljc2NTA0ODc3MTA2OSwieSI6LTQxMC44MjMyODAzMzQ0NzI3N30seyJ4IjotNDc3MS42MjAxMTcxODc1LCJ5IjotNDEwLjgyMzI4MDMzNDQ3Mjc3fSx7IngiOi00NzcxLjYyMDExNzE4NzUsInkiOi0yMzcuNTMzMzMyMDA2ODM1OTN9LHsieCI6LTQ1OTUuMDM0NzcxMTc1MjIsInkiOi0yMzcuNTMzNDMyMDA2ODM1OTR9LHsieCI6LTQ1OTUuMDM0NzcxMTc1MjIsInkiOi0yMDYuOTkyNDQ2ODk5NDE0MywicG9zIjoidCJ9XQ==" data-id="L_UseCurrentUser_CreateCustomerRecord_0" data-et="edge" data-edge="true" style="stroke-dasharray: 0 0 567.6988525390625 9; stroke-dashoffset: 0;;" class="edge-thickness-normal edge-pattern-solid edge-thickness-normal edge-pattern-solid flowchart-link" id="L_UseCurrentUser_CreateCustomerRecord_0" d="M-4768.765048771069,-614.6541137695312L-4768.765048771069,-412.2508145426883Q-4768.765048771069,-410.82328033447277 -4770.192582979284,-410.82328033447277L-4770.192582979284,-410.82328033447277Q-4771.6201171875,-410.82328033447277 -4771.6201171875,-409.3957461262572L-4771.6201171875,-244.60439781653506Q-4771.6201171875,-237.53333200683593 -4764.549051377802,-237.53333601116924L-4602.105836984918,-237.53342800250263Q-4595.03477117522,-237.53343200683594 -4595.03477117522,-230.46236619713682L-4595.03477117522,-210.9924468994143"/><path marker-end="url(#export-svg_flowchart-v2-pointEnd-margin)" data-points="W3sieCI6LTQzNTQuMDEyMDYxNjI0NjY2LCJ5IjotMzIxLjcxODE1NDkwNzIyNjM0LCJwb3MiOiJiIn0seyJ4IjotNDM1NC4wMTIwNjE2MjQ2NjYsInkiOi0yNjQuMzU1MzAwOTAzMzIwM30seyJ4IjotNDU0Ny40OTkzODI0NjcxMzEsInkiOi0yNjQuMzU1MzAwOTAzMzIwM30seyJ4IjotNDU0Ny40OTkzODI0NjcxMzEsInkiOi0yMDYuOTkyNDQ2ODk5NDE0MywicG9zIjoidCJ9XQ==" data-id="L_SkipUserCreation_CreateCustomerRecord_0" data-et="edge" data-edge="true" style="stroke-dasharray: 0 0 289.88494873046875 9; stroke-dashoffset: 0;;" class="edge-thickness-normal edge-pattern-solid edge-thickness-normal edge-pattern-solid flowchart-link" id="L_SkipUserCreation_CreateCustomerRecord_0" d="M-4354.012061624666,-321.71815490722634L-4354.012061624666,-271.4263687151858Q-4354.012061624666,-264.3553009033203 -4361.083129436532,-264.3553009033203L-4540.428314655265,-264.3553009033203Q-4547.499382467131,-264.3553009033203 -4547.499382467131,-257.28423309145484L-4547.499382467131,-210.9924468994143"/><path marker-end="url(#export-svg_flowchart-v2-pointEnd-margin)" data-points="W3sieCI6LTQ1ODQuMDA3NDIxOTA5OTY3LCJ5IjotMTYxLjk5MjQ0Njg5OTQxNDMsInBvcyI6ImIifSx7IngiOi00NTg0LjAwNzQyMTkwOTk2NywieSI6LTEyNC4xNjA0NDYxNjY5OTIzfSx7IngiOi00NTc5LjE2OTM1MTE2MTMyMiwieSI6LTEyNC4xNjA0NDYxNjY5OTIzfSx7IngiOi00NTc5LjE2OTM1MTE2MTMyMiwieSI6LTg2LjMyODQ0NTQzNDU3MDMxLCJwb3MiOiJ0In1d" data-id="L_CreateCustomerRecord_CreateBillingAddress_0" data-et="edge" data-edge="true" style="stroke-dasharray: 0 0 65.67952728271484 9; stroke-dashoffset: 0;;" class="edge-thickness-normal edge-pattern-solid edge-thickness-normal edge-pattern-solid flowchart-link" id="L_CreateCustomerRecord_CreateBillingAddress_0" d="M-4584.007421909967,-161.9924468994143L-4584.007421909967,-126.57948154131475Q-4584.007421909967,-124.1604461669923 -4581.5883865356445,-124.1604461669923L-4581.5883865356445,-124.1604461669923Q-4579.169351161322,-124.1604461669923 -4579.169351161322,-121.74141079266985L-4579.169351161322,-90.32844543457031"/><path marker-end="url(#export-svg_flowchart-v2-pointEnd-margin)" data-points="W3sieCI6LTQ1OTUuODg4NjU2OTA1MTQ0LCJ5IjotNDEuMzI4NDQ1NDM0NTcwMzEsInBvcyI6ImIifSx7IngiOi00NTk1Ljg4ODY1NjkwNTE0NCwieSI6LTI1LjU4Njk5MDM1NjQ0NTMxMn0seyJ4IjotNDYyMS4yOTYwNTA3MzY0NTgsInkiOi0yNS41ODY5OTAzNTY0NDUzMTJ9LHsieCI6LTQ2MjEuMjk2MDUwNzM2NDU4LCJ5IjotOS44NDU1MzUyNzgzMjAzMTIsInBvcyI6InQifV0=" data-id="L_CreateBillingAddress_CreateShippingAddress_0" data-et="edge" data-edge="true" style="stroke-dasharray: 0 0 39.01448059082031 9; stroke-dashoffset: 0;;" class="edge-thickness-normal edge-pattern-solid edge-thickness-normal edge-pattern-solid flowchart-link" id="L_CreateBillingAddress_CreateShippingAddress_0" d="M-4595.888656905144,-41.32844543457031L-4595.888656905144,-32.65805816831079Q-4595.888656905144,-25.586990356445312 -4602.9597247170095,-25.586990356445312L-4615.425323197395,-25.586990356445312Q-4621.296050736458,-25.586990356445312 -4621.296050736458,-19.716262817382812L-4621.296050736458,-13.845535278320312"/><path marker-end="url(#export-svg_flowchart-v2-pointEnd-margin)" data-points="W3sieCI6LTQ2NzkuOTUwNDcwODAyMDQ4LCJ5IjozNS4xNTQ0NjQ3MjE2Nzk2OSwicG9zIjoiYiJ9LHsieCI6LTQ2NzkuOTUwNDcwODAyMDQ4LCJ5Ijo2MC44OTY0MDgwODEwNTQ2OX0seyJ4IjotNDc3Mi4yMTMzNzgwNzQ5MDUsInkiOjYwLjg5NjQwODA4MTA1NDY5fSx7IngiOi00NzcyLjIxMzM3ODA3NDkwNSwieSI6ODYuNjM4MzUxNDQwNDI5NjksInBvcyI6InQifV0=" data-id="L_CreateShippingAddress_ValidateProductItems_0" data-et="edge" data-edge="true" style="stroke-dasharray: 0 0 125.41897583007812 9; stroke-dashoffset: 0;;" class="edge-thickness-normal edge-pattern-solid edge-thickness-normal edge-pattern-solid flowchart-link" id="L_CreateShippingAddress_ValidateProductItems_0" d="M-4679.950470802048,35.15446472167969L-4679.950470802048,53.82534026918921Q-4679.950470802048,60.89640808105469 -4687.021538613913,60.89640808105469L-4765.14231026304,60.89640808105469Q-4772.213378074905,60.89640808105469 -4772.213378074905,67.96747589292016L-4772.213378074905,82.63835144042969"/><path marker-end="url(#export-svg_flowchart-v2-pointEnd-margin)" data-points="W3sieCI6LTUwOTEuNTczNDg2MzM4MjA1LCJ5IjotNDM2Ljg5NTc2NzIxMTkxNDA2LCJwb3MiOiJiIn0seyJ4IjotNTA5MS41NzM0ODYzMzgyMDUsInkiOi0zOTMuOTE1NTczMTIwMTE3Mn0seyJ4IjotNTA5MC45MTU3OTQ1MzY1MSwieSI6LTM5My45MTU1NzMxMjAxMTcyfSx7IngiOi01MDkwLjkxNTc5NDUzNjUxLCJ5IjotMzUwLjkzNTM3OTAyODMyMDMsInBvcyI6InQifV0=" data-id="L_CreateShippingAddr_CustomerComplete_0" data-et="edge" data-edge="true" style="stroke-dasharray: 0 0 73.37037658691406 9; stroke-dashoffset: 0;;" class="edge-thickness-normal edge-pattern-solid edge-thickness-normal edge-pattern-solid flowchart-link" id="L_CreateShippingAddr_CustomerComplete_0" d="M-5091.573486338205,-436.89576721191406L-5091.573486338205,-394.24441902096487Q-5091.573486338205,-393.9155731201172 -5091.244640437357,-393.9155731201172L-5091.244640437357,-393.9155731201172Q-5090.91579453651,-393.9155731201172 -5090.91579453651,-393.5867272192695L-5090.91579453651,-354.9353790283203"/><path marker-end="url(#export-svg_flowchart-v2-pointEnd-margin)" data-points="W3sieCI6LTUwNzYuNDA1MDc2OTEzNzEsInkiOi0zMDUuOTM1Mzc5MDI4MzIwMywicG9zIjoiYiJ9LHsieCI6LTUwNzYuNDA1MDc2OTEzNzEsInkiOi0xMDkuNjQ4NTEzNzkzOTQ1MzF9LHsieCI6LTQ4MjcuMDQ4Mzc2MTUwMjU1LCJ5IjotMTA5LjY0ODUxMzc5Mzk0NTMxfSx7IngiOi00ODI3LjA0ODM3NjE1MDI1NSwieSI6ODYuNjM4MzUxNDQwNDI5NjksInBvcyI6InQifV0=" data-id="L_CustomerComplete_ValidateProductItems_0" data-et="edge" data-edge="true" style="stroke-dasharray: 0 0 623.6025390625 9; stroke-dashoffset: 0;;" class="edge-thickness-normal edge-pattern-solid edge-thickness-normal edge-pattern-solid flowchart-link" id="L_CustomerComplete_ValidateProductItems_0" d="M-5076.40507691371,-305.9353790283203L-5076.40507691371,-116.71958160581079Q-5076.40507691371,-109.64851379394531 -5069.3340091018445,-109.64851379394531L-4834.11944396212,-109.64851379394531Q-4827.048376150255,-109.64851379394531 -4827.048376150255,-102.57744598207984L-4827.048376150255,82.63835144042969"/><path marker-end="url(#export-svg_flowchart-v2-pointEnd-margin)" data-points="W3sieCI6LTQ3NjQuNjY1MzE4NjkzOTE1LCJ5IjotOTU5Ljg3NDczMzc4OTE4NDMsInBvcyI6ImIiLCJjb21wdXRlZEJ5YVN0YXIiOnRydWV9LHsieCI6LTQ3NjQuMjkxNjYyODc2NDE3LCJ5IjotOTI0LjcwNTgxNTQwODQxMzksInBvcyI6InQifV0=" data-id="L_n11_n12_0" data-et="edge" data-edge="true" style="stroke-dasharray: 0 0 22.17095184326172 9; stroke-dashoffset: 0;;" class="edge-thickness-normal edge-pattern-solid edge-thickness-normal edge-pattern-solid flowchart-link" id="L_n11_n12_0" d="M-4764.665318693915,-959.8747337891843L-4764.334158892438,-928.7055896631215"/><path marker-end="url(#export-svg_flowchart-v2-pointEnd-margin)" data-points="W3sieCI6LTQ3NjAuMjk4OTk0MjA4MTYsInkiOi0xMDc0LjU0NzQ1NDE5OTAzODQsInBvcyI6ImIiLCJjb21wdXRlZEJ5YVN0YXIiOnRydWV9LHsieCI6LTQ3NjEuOTc3OTExMzcxMDA1LCJ5IjotMTAwNi4yODY2NzI3NjE4MjUxLCJwb3MiOiJ0In1d" data-id="L_n13_n14_0" data-et="edge" data-edge="true" style="stroke-dasharray: 0 0 55.281455993652344 9; stroke-dashoffset: 0;;" class="edge-thickness-normal edge-pattern-solid edge-thickness-normal edge-pattern-solid flowchart-link" id="L_n13_n14_0" d="M-4760.29899420816,-1074.5474541990384L-4761.879558581519,-1010.2854634201118"/><path marker-end="url(#export-svg_flowchart-v2-pointEnd-margin)" data-points="W3sieCI6LTUwOTIuNTY0OTg1NjkwMDc4LCJ5IjotNTc1LjAxMDgxODQ4MTQ0NTMsInBvcyI6ImIifSx7IngiOi01MDkyLjU2NDk4NTY5MDA3OCwieSI6LTUzNy42ODY5OTY0NTk5NjA5fSx7IngiOi01MDkyLjAzOTYyMjg3OTA4MywieSI6LTUzNy42ODY5OTY0NTk5NjA5fSx7IngiOi01MDkyLjAzOTYyMjg3OTA4MywieSI6LTUwMC4zNjMxNzQ0Mzg0NzY1NiwicG9zIjoidCJ9XQ==" data-id="L_CreateBillingAddr_CreateShippingAddr_0" data-et="edge" data-edge="true" style="stroke-dasharray: 0 0 61.975486755371094 9; stroke-dashoffset: 0;;" class="edge-thickness-normal edge-pattern-solid edge-thickness-normal edge-pattern-solid flowchart-link" id="L_CreateBillingAddr_CreateShippingAddr_0" d="M-5092.564985690078,-575.0108184814453L-5092.564985690078,-537.9496778654584Q-5092.564985690078,-537.6869964599609 -5092.302304284581,-537.6869964599609L-5092.302304284581,-537.6869964599609Q-5092.039622879083,-537.6869964599609 -5092.039622879083,-537.4243150544635L-5092.039622879083,-504.36317443847656"/><path marker-end="url(#export-svg_flowchart-v2-pointEnd-margin)" data-points="W3sieCI6LTUwOTMuNzQ5NzQ1MjQwMDIzLCJ5IjotNzIyLjc5ODQ3NzE3Mjg1MTMsInBvcyI6ImIifSx7IngiOi01MDkzLjc0OTc0NTI0MDAyMywieSI6LTY4Mi4xNzA5MTM2OTYyODl9LHsieCI6LTUwOTMuMDc1MjUxNTc4MzE2LCJ5IjotNjgyLjE3MDkxMzY5NjI4OX0seyJ4IjotNTA5My4wNzUyNTE1NzgzMTYsInkiOi02NDEuNTQzMzUwMjE5NzI2NiwicG9zIjoidCJ9XQ==" data-id="L_UpdateCustomer_CreateBillingAddr_0" data-et="edge" data-edge="true" style="stroke-dasharray: 0 0 68.67595672607422 9; stroke-dashoffset: 0;;" class="edge-thickness-normal edge-pattern-solid edge-thickness-normal edge-pattern-solid flowchart-link" id="L_UpdateCustomer_CreateBillingAddr_0" d="M-5093.749745240023,-722.7984771728513L-5093.749745240023,-682.5081605271424Q-5093.749745240023,-682.170913696289 -5093.4124984091695,-682.170913696289L-5093.4124984091695,-682.170913696289Q-5093.075251578316,-682.170913696289 -5093.075251578316,-681.8336668654355L-5093.075251578316,-645.5433502197266"/><path marker-end="url(#export-svg_flowchart-v2-pointEnd-margin)" data-points="W3sieCI6LTQ4MjEuNDk3NjY3ODQ2NDk4LCJ5IjoxMzMuNDQ1ODQ5NTUzNzYxMzIsInBvcyI6ImIiLCJjb21wdXRlZEJ5YVN0YXIiOnRydWV9LHsieCI6LTQ4MjAuMTE5NjkwMDc4NTE0LCJ5IjoxODkuOTI0MzY4MzUzNTEyMywicG9zIjoidCJ9XQ==" data-id="L_n15_n16_0" data-et="edge" data-edge="true" style="stroke-dasharray: 0 0 43.49531936645508 9; stroke-dashoffset: 0;;" class="edge-thickness-normal edge-pattern-solid edge-thickness-normal edge-pattern-solid flowchart-link" id="L_n15_n16_0" d="M-4821.497667846498,133.44584955376132L-4820.217254096994,185.92555837274327"/></g><g class="edgeLabels"><g transform="translate(-4950.92057, -822.92584)" class="edgeLabel"><g transform="translate(-11.421875, -10.5)" data-id="L_CustomerExists_UpdateCustomer_0" class="label"><foreignObject height="21" width="22.84375"><div class="labelBkg" xmlns="http://www.w3.org/1999/xhtml" style="display: table-cell; white-space: normal; line-height: 1.5; max-width: 200px; text-align: center;"><span class="edgeLabel"><p>Yes</p></span></div></foreignObject></g></g><g transform="translate(-4605.15135, -818.19419)" class="edgeLabel"><g transform="translate(-8.94921875, -10.5)" data-id="L_CustomerExists_CreateNewCustomer_0" class="label"><foreignObject height="21" width="17.8984375"><div class="labelBkg" xmlns="http://www.w3.org/1999/xhtml" style="display: table-cell; white-space: normal; line-height: 1.5; max-width: 200px; text-align: center;"><span class="edgeLabel"><p>No</p></span></div></foreignObject></g></g><g class="edgeLabel"><g transform="translate(0, 0)" data-id="L_CreateNewCustomer_CheckLoggedIn_0" class="label"><foreignObject height="0" width="0"><div class="labelBkg" xmlns="http://www.w3.org/1999/xhtml" style="display: table-cell; white-space: normal; line-height: 1.5; max-width: 200px; text-align: center;"><span class="edgeLabel"></span></div></foreignObject></g></g><g transform="translate(-4664.66602, -626.10561)" class="edgeLabel"><g transform="translate(-11.421875, -10.5)" data-id="L_CheckLoggedIn_UseCurrentUser_0" class="label"><foreignObject height="21" width="22.84375"><div class="labelBkg" xmlns="http://www.w3.org/1999/xhtml" style="display: table-cell; white-space: normal; line-height: 1.5; max-width: 200px; text-align: center;"><span class="edgeLabel"><p>Yes</p></span></div></foreignObject></g></g><g transform="translate(-4515.78311, -539.02511)" class="edgeLabel"><g transform="translate(-8.94921875, -10.5)" data-id="L_CheckLoggedIn_CheckShouldCreateUser_0" class="label"><foreignObject height="21" width="17.8984375"><div class="labelBkg" xmlns="http://www.w3.org/1999/xhtml" style="display: table-cell; white-space: normal; line-height: 1.5; max-width: 200px; text-align: center;"><span class="edgeLabel"><p>No</p></span></div></foreignObject></g></g><g transform="translate(-4583.559, -404.22157)" class="edgeLabel"><g transform="translate(-11.421875, -10.5)" data-id="L_CheckShouldCreateUser_CreateWPUser_0" class="label"><foreignObject height="21" width="22.84375"><div class="labelBkg" xmlns="http://www.w3.org/1999/xhtml" style="display: table-cell; white-space: normal; line-height: 1.5; max-width: 200px; text-align: center;"><span class="edgeLabel"><p>Yes</p></span></div></foreignObject></g></g><g transform="translate(-4355.15539, -401.48422)" class="edgeLabel"><g transform="translate(-8.94921875, -10.5)" data-id="L_CheckShouldCreateUser_SkipUserCreation_0" class="label"><foreignObject height="21" width="17.8984375"><div class="labelBkg" xmlns="http://www.w3.org/1999/xhtml" style="display: table-cell; white-space: normal; line-height: 1.5; max-width: 200px; text-align: center;"><span class="edgeLabel"><p>No</p></span></div></foreignObject></g></g><g class="edgeLabel"><g transform="translate(0, 0)" data-id="L_CreateWPUser_CreateCustomerRecord_0" class="label"><foreignObject height="0" width="0"><div class="labelBkg" xmlns="http://www.w3.org/1999/xhtml" style="display: table-cell; white-space: normal; line-height: 1.5; max-width: 200px; text-align: center;"><span class="edgeLabel"></span></div></foreignObject></g></g><g class="edgeLabel"><g transform="translate(0, 0)" data-id="L_UseCurrentUser_CreateCustomerRecord_0" class="label"><foreignObject height="0" width="0"><div class="labelBkg" xmlns="http://www.w3.org/1999/xhtml" style="display: table-cell; white-space: normal; line-height: 1.5; max-width: 200px; text-align: center;"><span class="edgeLabel"></span></div></foreignObject></g></g><g class="edgeLabel"><g transform="translate(0, 0)" data-id="L_SkipUserCreation_CreateCustomerRecord_0" class="label"><foreignObject height="0" width="0"><div class="labelBkg" xmlns="http://www.w3.org/1999/xhtml" style="display: table-cell; white-space: normal; line-height: 1.5; max-width: 200px; text-align: center;"><span class="edgeLabel"></span></div></foreignObject></g></g><g class="edgeLabel"><g transform="translate(0, 0)" data-id="L_CreateCustomerRecord_CreateBillingAddress_0" class="label"><foreignObject height="0" width="0"><div class="labelBkg" xmlns="http://www.w3.org/1999/xhtml" style="display: table-cell; white-space: normal; line-height: 1.5; max-width: 200px; text-align: center;"><span class="edgeLabel"></span></div></foreignObject></g></g><g class="edgeLabel"><g transform="translate(0, 0)" data-id="L_CreateBillingAddress_CreateShippingAddress_0" class="label"><foreignObject height="0" width="0"><div class="labelBkg" xmlns="http://www.w3.org/1999/xhtml" style="display: table-cell; white-space: normal; line-height: 1.5; max-width: 200px; text-align: center;"><span class="edgeLabel"></span></div></foreignObject></g></g><g class="edgeLabel"><g transform="translate(0, 0)" data-id="L_CreateShippingAddress_ValidateProductItems_0" class="label"><foreignObject height="0" width="0"><div class="labelBkg" xmlns="http://www.w3.org/1999/xhtml" style="display: table-cell; white-space: normal; line-height: 1.5; max-width: 200px; text-align: center;"><span class="edgeLabel"></span></div></foreignObject></g></g><g class="edgeLabel"><g transform="translate(0, 0)" data-id="L_CreateShippingAddr_CustomerComplete_0" class="label"><foreignObject height="0" width="0"><div class="labelBkg" xmlns="http://www.w3.org/1999/xhtml" style="display: table-cell; white-space: normal; line-height: 1.5; max-width: 200px; text-align: center;"><span class="edgeLabel"></span></div></foreignObject></g></g><g class="edgeLabel"><g transform="translate(0, 0)" data-id="L_CustomerComplete_ValidateProductItems_0" class="label"><foreignObject height="0" width="0"><div class="labelBkg" xmlns="http://www.w3.org/1999/xhtml" style="display: table-cell; white-space: normal; line-height: 1.5; max-width: 200px; text-align: center;"><span class="edgeLabel"></span></div></foreignObject></g></g><g class="edgeLabel"><g transform="translate(0, 0)" data-id="L_n11_n12_0" class="label"><foreignObject height="0" width="0"><div class="labelBkg" xmlns="http://www.w3.org/1999/xhtml" style="display: table-cell; white-space: normal; line-height: 1.5; max-width: 200px; text-align: center;"><span class="edgeLabel"></span></div></foreignObject></g></g><g class="edgeLabel"><g transform="translate(0, 0)" data-id="L_n13_n14_0" class="label"><foreignObject height="0" width="0"><div class="labelBkg" xmlns="http://www.w3.org/1999/xhtml" style="display: table-cell; white-space: normal; line-height: 1.5; max-width: 200px; text-align: center;"><span class="edgeLabel"></span></div></foreignObject></g></g><g class="edgeLabel"><g transform="translate(0, 0)" data-id="L_CreateBillingAddr_CreateShippingAddr_0" class="label"><foreignObject height="0" width="0"><div class="labelBkg" xmlns="http://www.w3.org/1999/xhtml" style="display: table-cell; white-space: normal; line-height: 1.5; max-width: 200px; text-align: center;"><span class="edgeLabel"></span></div></foreignObject></g></g><g class="edgeLabel"><g transform="translate(0, 0)" data-id="L_UpdateCustomer_CreateBillingAddr_0" class="label"><foreignObject height="0" width="0"><div class="labelBkg" xmlns="http://www.w3.org/1999/xhtml" style="display: table-cell; white-space: normal; line-height: 1.5; max-width: 200px; text-align: center;"><span class="edgeLabel"></span></div></foreignObject></g></g><g class="edgeLabel"><g transform="translate(0, 0)" data-id="L_n15_n16_0" class="label"><foreignObject height="0" width="0"><div class="labelBkg" xmlns="http://www.w3.org/1999/xhtml" style="display: table-cell; white-space: normal; line-height: 1.5; max-width: 200px; text-align: center;"><span class="edgeLabel"></span></div></foreignObject></g></g></g></g></g><defs><filter width="130%" height="130%" id="drop-shadow"><feDropShadow flood-color="#FFFFFF" flood-opacity="0.06" stdDeviation="0" dy="4" dx="4"/></filter></defs><defs><filter width="150%" height="150%" id="drop-shadow-small"><feDropShadow flood-color="#FFFFFF" flood-opacity="0.06" stdDeviation="0" dy="2" dx="2"/></filter></defs><linearGradient y2="0%" x2="100%" y1="0%" x1="0%" gradientUnits="objectBoundingBox" id="export-svg-gradient"><stop stop-opacity="1" stop-color="#0042eb" offset="0%"/><stop stop-opacity="1" stop-color="#eb0042" offset="100%"/></linearGradient></svg>