<svg aria-roledescription="flowchart-v2" role="graphics-document document" viewBox="-4157.474609375 -1055.98388671875 678.6533203125 1129.091552734375" style="max-width: 678.6533203125px;" class="flowchart" xmlns="http://www.w3.org/2000/svg" width="100%" id="export-svg"><style xmlns="http://www.w3.org/1999/xhtml">@import url("https://cdnjs.cloudflare.com/ajax/libs/font-awesome/6.2.0/css/all.min.css"); p {margin: 0;}</style><style>#export-svg{font-family:arial,sans-serif;font-size:14px;fill:#333;}@keyframes edge-animation-frame{from{stroke-dashoffset:0;}}@keyframes dash{to{stroke-dashoffset:0;}}#export-svg .edge-animation-slow{stroke-dasharray:9,5!important;stroke-dashoffset:900;animation:dash 50s linear infinite;stroke-linecap:round;}#export-svg .edge-animation-fast{stroke-dasharray:9,5!important;stroke-dashoffset:900;animation:dash 20s linear infinite;stroke-linecap:round;}#export-svg .error-icon{fill:#ffffff;}#export-svg .error-text{fill:#000000;stroke:#000000;}#export-svg .edge-thickness-normal{stroke-width:1px;}#export-svg .edge-thickness-thick{stroke-width:3.5px;}#export-svg .edge-pattern-solid{stroke-dasharray:0;}#export-svg .edge-thickness-invisible{stroke-width:0;fill:none;}#export-svg .edge-pattern-dashed{stroke-dasharray:3;}#export-svg .edge-pattern-dotted{stroke-dasharray:2;}#export-svg .marker{fill:#000000;stroke:#000000;}#export-svg .marker.cross{stroke:#000000;}#export-svg svg{font-family:arial,sans-serif;font-size:14px;}#export-svg p{margin:0;}#export-svg .label{font-family:arial,sans-serif;color:#333;}#export-svg .cluster-label text{fill:#000000;}#export-svg .cluster-label span{color:#000000;}#export-svg .cluster-label span p{background-color:transparent;}#export-svg .label text,#export-svg span{fill:#333;color:#333;}#export-svg .node rect,#export-svg .node circle,#export-svg .node ellipse,#export-svg .node polygon,#export-svg .node path{fill:#ffffff;stroke:#000000;stroke-width:1px;}#export-svg .rough-node .label text,#export-svg .node .label text,#export-svg .image-shape .label,#export-svg .icon-shape .label{text-anchor:middle;}#export-svg .node .katex path{fill:#000;stroke:#000;stroke-width:1px;}#export-svg .rough-node .label,#export-svg .node .label,#export-svg .image-shape .label,#export-svg .icon-shape .label{text-align:center;}#export-svg .node.clickable{cursor:pointer;}#export-svg .root .anchor path{fill:#000000!important;stroke-width:0;stroke:#000000;}#export-svg .arrowheadPath{fill:#000000;}#export-svg .edgePath .path{stroke:#000000;stroke-width:1px;}#export-svg .flowchart-link{stroke:#000000;fill:none;}#export-svg .edgeLabel{background-color:#E9E9F1;text-align:center;}#export-svg .edgeLabel p{background-color:#E9E9F1;}#export-svg .edgeLabel rect{opacity:0.5;background-color:#E9E9F1;fill:#E9E9F1;}#export-svg .labelBkg{background-color:rgba(233, 233, 241, 0.5);}#export-svg .cluster rect{fill:#ffffff;stroke:hsl(0, 0%, 90%);stroke-width:1px;}#export-svg .cluster text{fill:#000000;}#export-svg .cluster span{color:#000000;}#export-svg div.mermaidTooltip{position:absolute;text-align:center;max-width:200px;padding:2px;font-family:arial,sans-serif;font-size:12px;background:#ffffff;border:1px solid hsl(0, 0%, 90%);border-radius:2px;pointer-events:none;z-index:100;}#export-svg .flowchartTitleText{text-anchor:middle;font-size:18px;fill:#333;}#export-svg rect.text{fill:none;stroke-width:0;}#export-svg .icon-shape,#export-svg .image-shape{background-color:#E9E9F1;text-align:center;}#export-svg .icon-shape p,#export-svg .image-shape p{background-color:#E9E9F1;padding:2px;}#export-svg .icon-shape rect,#export-svg .image-shape rect{opacity:0.5;background-color:#E9E9F1;fill:#E9E9F1;}#export-svg .node .neo-node{stroke:#000000;}#export-svg [data-look="neo"].node rect,#export-svg [data-look="neo"].cluster rect,#export-svg [data-look="neo"].node polygon{stroke:url(#export-svg-gradient);filter:drop-shadow( 0px 1px 2px rgba(0, 0, 0, 0.25));}#export-svg [data-look="neo"].node path{stroke:url(#export-svg-gradient);}#export-svg [data-look="neo"].node .outer-path{filter:drop-shadow( 0px 1px 2px rgba(0, 0, 0, 0.25));}#export-svg [data-look="neo"].node .neo-line path{stroke:hsl(240, 50%, 86.0784313725%);filter:none;}#export-svg [data-look="neo"].node circle{stroke:url(#export-svg-gradient);filter:drop-shadow( 0px 1px 2px rgba(0, 0, 0, 0.25));}#export-svg [data-look="neo"].node circle .state-start{fill:#000000;}#export-svg [data-look="neo"].statediagram-cluster rect{fill:#ffffff;stroke:url(#export-svg-gradient);stroke-width:1px;}#export-svg [data-look="neo"].icon-shape .icon{fill:url(#export-svg-gradient);filter:drop-shadow( 0px 1px 2px rgba(0, 0, 0, 0.25));}#export-svg [data-look="neo"].icon-shape .icon-neo path{stroke:url(#export-svg-gradient);filter:drop-shadow( 0px 1px 2px rgba(0, 0, 0, 0.25));}#export-svg :root{--mermaid-font-family:"trebuchet ms",verdana,arial,sans-serif;}#export-svg .Pine&gt;*{stroke-width:1px!important;stroke-dasharray:none!important;stroke:#254336!important;fill:#27654A!important;color:#FFFFFF!important;}#export-svg .Pine span{stroke-width:1px!important;stroke-dasharray:none!important;stroke:#254336!important;fill:#27654A!important;color:#FFFFFF!important;}#export-svg .Pine tspan{fill:#FFFFFF!important;}#export-svg .Sky&gt;*{stroke-width:1px!important;stroke-dasharray:none!important;stroke:#374D7C!important;fill:#E2EBFF!important;color:#374D7C!important;}#export-svg .Sky span{stroke-width:1px!important;stroke-dasharray:none!important;stroke:#374D7C!important;fill:#E2EBFF!important;color:#374D7C!important;}#export-svg .Sky tspan{fill:#374D7C!important;}#export-svg .Ash&gt;*{stroke-width:1px!important;stroke-dasharray:none!important;stroke:#999999!important;fill:#EEEEEE!important;color:#000000!important;}#export-svg .Ash span{stroke-width:1px!important;stroke-dasharray:none!important;stroke:#999999!important;fill:#EEEEEE!important;color:#000000!important;}#export-svg .Ash tspan{fill:#000000!important;}#export-svg .Aqua&gt;*{stroke-width:1px!important;stroke-dasharray:none!important;stroke:#46EDC8!important;fill:#DEFFF8!important;color:#378E7A!important;}#export-svg .Aqua span{stroke-width:1px!important;stroke-dasharray:none!important;stroke:#46EDC8!important;fill:#DEFFF8!important;color:#378E7A!important;}#export-svg .Aqua tspan{fill:#378E7A!important;}</style><g><marker orient="auto" markerHeight="14" markerWidth="10.5" markerUnits="userSpaceOnUse" refY="7" refX="7.75" viewBox="0 0 11.5 14" class="marker flowchart-v2" id="export-svg_flowchart-v2-pointEnd"><path style="stroke-width: 0; stroke-dasharray: 1, 0;" class="arrowMarkerPath" d="M 0 0 L 11.5 7 L 0 14 z"/></marker><marker orient="auto" markerHeight="14" markerWidth="11.5" markerUnits="userSpaceOnUse" refY="7" refX="4" viewBox="0 0 11.5 14" class="marker flowchart-v2" id="export-svg_flowchart-v2-pointStart"><polygon style="stroke-width: 0; stroke-dasharray: 1, 0;" class="arrowMarkerPath" points="0,7 11.5,14 11.5,0"/></marker><marker orient="auto" markerHeight="14" markerWidth="10.5" markerUnits="userSpaceOnUse" refY="7" refX="11.5" viewBox="0 0 11.5 14" class="marker flowchart-v2" id="export-svg_flowchart-v2-pointEnd-margin"><path style="stroke-width: 0; stroke-dasharray: 1, 0;" class="arrowMarkerPath" d="M 0 0 L 11.5 7 L 0 14 z"/></marker><marker orient="auto" markerHeight="14" markerWidth="11.5" markerUnits="userSpaceOnUse" refY="7" refX="1" viewBox="0 0 11.5 14" class="marker flowchart-v2" id="export-svg_flowchart-v2-pointStart-margin"><polygon style="stroke-width: 0; stroke-dasharray: 1, 0;" class="arrowMarkerPath" points="0,7 11.5,14 11.5,0"/></marker><marker orient="auto" markerHeight="14" markerWidth="14" markerUnits="userSpaceOnUse" refX="10.75" refY="5" viewBox="0 0 10 10" class="marker flowchart-v2" id="export-svg_flowchart-v2-circleEnd"><circle style="stroke-width: 0; stroke-dasharray: 1, 0;" class="arrowMarkerPath" r="5" cy="5" cx="5"/></marker><marker orient="auto" markerHeight="14" markerWidth="14" markerUnits="userSpaceOnUse" refY="5" refX="0" viewBox="0 0 10 10" class="marker flowchart-v2" id="export-svg_flowchart-v2-circleStart"><circle style="stroke-width: 0; stroke-dasharray: 1, 0;" class="arrowMarkerPath" r="5" cy="5" cx="5"/></marker><marker orient="auto" markerHeight="14" markerWidth="14" markerUnits="userSpaceOnUse" refX="12.25" refY="5" viewBox="0 0 10 10" class="marker flowchart-v2" id="export-svg_flowchart-v2-circleEnd-margin"><circle style="stroke-width: 0; stroke-dasharray: 1, 0;" class="arrowMarkerPath" r="5" cy="5" cx="5"/></marker><marker orient="auto" markerHeight="14" markerWidth="14" markerUnits="userSpaceOnUse" refY="5" refX="-2" viewBox="0 0 10 10" class="marker flowchart-v2" id="export-svg_flowchart-v2-circleStart-margin"><circle style="stroke-width: 0; stroke-dasharray: 1, 0;" class="arrowMarkerPath" r="5" cy="5" cx="5"/></marker><marker orient="auto" markerHeight="12" markerWidth="12" markerUnits="userSpaceOnUse" refY="7.5" refX="17.7" viewBox="0 0 15 15" class="marker cross flowchart-v2" id="export-svg_flowchart-v2-crossEnd"><path style="stroke-width: 2.5;" class="arrowMarkerPath" d="M 1,1 L 14,14 M 1,14 L 14,1"/></marker><marker orient="auto" markerHeight="12" markerWidth="12" markerUnits="userSpaceOnUse" refY="7.5" refX="-3.5" viewBox="0 0 15 15" class="marker cross flowchart-v2" id="export-svg_flowchart-v2-crossStart"><path style="stroke-width: 2.5; stroke-dasharray: 1, 0;" class="arrowMarkerPath" d="M 1,1 L 14,14 M 1,14 L 14,1"/></marker><marker orient="auto" markerHeight="12" markerWidth="12" markerUnits="userSpaceOnUse" refY="7.5" refX="17.7" viewBox="0 0 15 15" class="marker cross flowchart-v2" id="export-svg_flowchart-v2-crossEnd-margin"><path style="stroke-width: 2.5;" class="arrowMarkerPath" d="M 1,1 L 14,14 M 1,14 L 14,1"/></marker><marker orient="auto" markerHeight="12" markerWidth="12" markerUnits="userSpaceOnUse" refY="7.5" refX="-3.5" viewBox="0 0 15 15" class="marker cross flowchart-v2" id="export-svg_flowchart-v2-crossStart-margin"><path style="stroke-width: 2.5; stroke-dasharray: 1, 0;" class="arrowMarkerPath" d="M 1,1 L 14,14 M 1,14 L 14,1"/></marker><g class="root"><g class="clusters"/><g class="nodes"><g transform="translate(-3737.2023315429688, -467.5817718505864)" data-look="neo" data-et="node" data-node="true" data-id="ExtractOneTimeItems" id="flowchart-ExtractOneTimeItems-0" class="node default"><rect stroke="url(#gradient)" height="44.999755859375" width="171.2659912109375" y="-22.4998779296875" x="-85.63299560546875" data-id="ExtractOneTimeItems" style="" class="basic label-container"/><g transform="translate(-69.6328125, -10.4998779296875)" style="" class="label"><rect/><foreignObject height="20.999755859375" width="139.265625"><div xmlns="http://www.w3.org/1999/xhtml" style="display: table-cell; white-space: normal; line-height: 1.5; max-width: 139.266px; text-align: center;"><span class="nodeLabel"><p>Extract one-time items</p></span></div></foreignObject></g></g><g transform="translate(-3737.2025756835938, -344.6018524169922)" data-look="neo" data-et="node" data-node="true" data-id="CheckSubscriptionItems" id="flowchart-CheckSubscriptionItems-1" class="node default"><polygon transform="translate(-74.74578857421875,74.74578857421875)" class="label-container" points="74.74578857421875,0 149.4915771484375,-74.74578857421875 74.74578857421875,-149.4915771484375 0,-74.74578857421875"/><g transform="translate(-44.7421875, -21)" style="" class="label"><rect/><foreignObject height="42" width="89.484375"><div xmlns="http://www.w3.org/1999/xhtml" style="display: table-cell; white-space: normal; line-height: 1.5; max-width: 89.4916px; text-align: center;"><span class="nodeLabel"><p>Has <br />subscriptions?</p></span></div></foreignObject></g></g><g transform="translate(-4027.86181640625, -344.60063171386673)" data-look="neo" data-et="node" data-node="true" data-id="ProcessSubscriptions" id="flowchart-ProcessSubscriptions-3" class="node default"><rect stroke="url(#gradient)" height="45" width="198.5067138671875" y="-22.5" x="-99.25335693359375" data-id="ProcessSubscriptions" style="" class="basic label-container"/><g transform="translate(-83.25, -10.5)" style="" class="label"><rect/><foreignObject height="21" width="166.5"><div xmlns="http://www.w3.org/1999/xhtml" style="display: table-cell; white-space: normal; line-height: 1.5; max-width: 166.507px; text-align: center;"><span class="nodeLabel"><p>Process subscription items</p></span></div></foreignObject></g></g><g transform="translate(-3737.2025756835938, -79.03599548339798)" data-look="neo" data-et="node" data-node="true" data-id="AddOneTimeItems" id="flowchart-AddOneTimeItems-5" class="node default"><g class="basic label-container outer-path"><path style="" fill="#ffffff" stroke-width="0" stroke="none" d="M-107.3748779296875 -22.5 C-104.99565698760323 -17.741558115831463, -102.61643604551897 -12.983116231662924, -96.1248779296875 0 C-100.0442335474073 7.838711235439598, -103.9635891651271 15.677422470879195, -107.3748779296875 22.5 C-21.640493487838697 22.5, 64.0938909540101 22.5, 107.3748779296875 22.5 C107.3748779296875 13.437273523406539, 107.3748779296875 4.374547046813078, 107.3748779296875 -22.5 C53.77002147293223 -22.5, 0.16516501617695667 -22.5, -107.3748779296875 -22.5"/><path style="" fill="none" stroke-width="1.3" stroke="#000000" d="M-107.3748779296875 -22.5 C-103.50101627157781 -14.752276683780607, -99.62715461346811 -7.004553367561215, -96.1248779296875 0 M-107.3748779296875 -22.5 C-104.43687044398935 -16.623985028603713, -101.49886295829121 -10.747970057207421, -96.1248779296875 0 M-96.1248779296875 0 C-98.5846956375235 4.919635415671984, -101.04451334535949 9.839270831343969, -107.3748779296875 22.5 M-96.1248779296875 0 C-100.02487741861621 7.799998977857432, -103.92487690754493 15.599997955714864, -107.3748779296875 22.5 M-107.3748779296875 22.5 C-24.202711375118298 22.5, 58.969455179450904 22.5, 107.3748779296875 22.5 M-107.3748779296875 22.5 C-30.254602575934612 22.5, 46.865672777818276 22.5, 107.3748779296875 22.5 M107.3748779296875 22.5 C107.3748779296875 11.2770496535367, 107.3748779296875 0.05409930707340038, 107.3748779296875 -22.5 M107.3748779296875 22.5 C107.3748779296875 6.804037858591046, 107.3748779296875 -8.891924282817907, 107.3748779296875 -22.5 M107.3748779296875 -22.5 C40.349929176174015 -22.5, -26.67501957733947 -22.5, -107.3748779296875 -22.5 M107.3748779296875 -22.5 C53.89499232515121 -22.5, 0.41510672061491505 -22.5, -107.3748779296875 -22.5"/></g><g transform="translate(-80.74609375, -10.5)" style="" class="label"><rect/><foreignObject height="21" width="172.7421875"><div xmlns="http://www.w3.org/1999/xhtml" style="display: table-cell; white-space: normal; line-height: 1.5; max-width: 172.75px; text-align: center;"><span class="nodeLabel"><p>Add one-time items to order</p></span></div></foreignObject></g></g><g transform="translate(-4027.3763732910165, -250.24760437011673)" data-look="neo" data-et="node" data-node="true" data-id="MaybeAddSignupFees" id="flowchart-MaybeAddSignupFees-7" class="node default"><rect stroke="url(#gradient)" height="45" width="179.0858764648438" y="-22.5" x="-89.5429382324219" data-id="MaybeAddSignupFees" style="" class="basic label-container"/><g transform="translate(-73.5390625, -10.5)" style="" class="label"><rect/><foreignObject height="21" width="147.078125"><div xmlns="http://www.w3.org/1999/xhtml" style="display: table-cell; white-space: normal; line-height: 1.5; max-width: 147.086px; text-align: center;"><span class="nodeLabel"><p>Process data for signup</p></span></div></foreignObject></g></g><g transform="translate(-4027.376480102539, -166.94132995605423)" data-look="neo" data-et="node" data-node="true" data-id="UpdateDiscountedSubscriptions" id="flowchart-UpdateDiscountedSubscriptions-9" class="node default"><rect stroke="url(#gradient)" height="66" width="232.0007629394531" y="-33" x="-116.00038146972655" data-id="UpdateDiscountedSubscriptions" style="" class="basic label-container"/><g transform="translate(-100, -21)" style="" class="label"><rect/><foreignObject height="42" width="200"><div xmlns="http://www.w3.org/1999/xhtml" style="display: table-cell; white-space: normal; line-height: 1.5; max-width: 200.001px; text-align: center;"><span class="nodeLabel"><p>Update discounted subscriptions</p></span></div></foreignObject></g></g><g transform="translate(-4027.376480102539, -78.58934020996094)" data-look="neo" data-et="node" data-node="true" data-id="AddSubscriptionsToOrder" id="flowchart-AddSubscriptionsToOrder-11" class="node default"><rect stroke="url(#gradient)" height="45" width="194.6400451660156" y="-22.5" x="-97.3200225830078" data-id="AddSubscriptionsToOrder" style="" class="basic label-container"/><g transform="translate(-81.31640625, -10.5)" style="" class="label"><rect/><foreignObject height="21" width="162.6328125"><div xmlns="http://www.w3.org/1999/xhtml" style="display: table-cell; white-space: normal; line-height: 1.5; max-width: 162.64px; text-align: center;"><span class="nodeLabel"><p>Add subscriptions to order</p></span></div></foreignObject></g></g><g transform="translate(-3837.483917236328, -790.7217254638672)" data-look="neo" data-et="node" data-node="true" data-id="CheckStock" id="flowchart-CheckStock-14" class="node default"><polygon transform="translate(-80.9767761230469,80.9767761230469)" class="label-container" points="80.9767761230469,0 161.9535522460938,-80.9767761230469 80.9767761230469,-161.9535522460938 0,-80.9767761230469"/><g transform="translate(-50.9765625, -10.5)" style="" class="label"><rect/><foreignObject height="21" width="101.953125"><div xmlns="http://www.w3.org/1999/xhtml" style="display: table-cell; white-space: normal; line-height: 1.5; max-width: 101.954px; text-align: center;"><span class="nodeLabel"><p>Stock available?</p></span></div></foreignObject></g></g><g transform="translate(-3730.7317504882812, -616.2451629638672)" data-look="neo" data-et="node" data-node="true" data-id="ProductsValid" id="flowchart-ProductsValid-15" class="node default"><rect stroke="url(#gradient)" height="45" width="147.1796875" y="-22.5" x="-73.58984375" data-id="ProductsValid" style="" class="basic label-container"/><g transform="translate(-57.58984375, -10.5)" style="" class="label"><rect/><foreignObject height="21" width="115.1796875"><div xmlns="http://www.w3.org/1999/xhtml" style="display: table; white-space: break-spaces; line-height: 1.5; max-width: 115.18px; text-align: center; width: 115.18px;"><span class="nodeLabel"><p>Products validated</p></span></div></foreignObject></g></g><g transform="translate(-3837.2655181884775, -962.4452362060547)" data-look="neo" data-et="node" data-node="true" data-id="CheckProductExists" id="flowchart-CheckProductExists-16" class="node default"><path transform="translate(-68.40776873238477, 16.5 )" style="" class="basic label-container outer-path" d="M0,0&#10;    a5.221518987341772,16.5 0,0,1 0,-33&#10;    l136.81553746476953,0&#10;    a5.221518987341772,16.5 0,0,1 0,33&#10;    M136.81553746476953,-33&#10;    a5.221518987341772,16.5 0,0,0 0,33&#10;    l-136.81553746476953,0"/><g transform="translate(-65.01839398734177, -10.5)" style="" class="label"><rect/><foreignObject height="21" width="119.59375"><div xmlns="http://www.w3.org/1999/xhtml" style="display: table-cell; white-space: normal; line-height: 1.5; max-width: 119.594px; text-align: center;"><span class="nodeLabel"><p>Product Validations</p></span></div></foreignObject></g></g><g transform="translate(-4061.4981079101562, -631.6980438232422)" data-look="neo" data-et="node" data-node="true" data-id="ReturnError" id="flowchart-ReturnError-19" class="node default"><rect stroke="url(#gradient)" height="45" width="175.952880859375" y="-22.5" x="-87.9764404296875" data-id="ReturnError" style="fill:#FF6D00 !important" class="basic label-container"/><g transform="translate(-71.97265625, -10.5)" style="color:#FFFFFF !important" class="label"><rect/><foreignObject height="21" width="143.9453125"><div xmlns="http://www.w3.org/1999/xhtml" style="color: rgb(255, 255, 255) !important; display: table-cell; white-space: normal; line-height: 1.5; max-width: 143.953px; text-align: center;"><span class="nodeLabel" style="color:#FFFFFF !important"><p>Return Error Response</p></span></div></foreignObject></g></g><g transform="translate(-3735.817138671875, -593.8744812011719)" data-look="neo" data-et="node" data-node="true" data-id="n17" id="flowchart-n17-20" class="node default"><g style="" class="anchor"><path fill="black" stroke-width="0" stroke="none" d="M1 0 C1 0.05788272588897678, 0.9948589828812233 0.11664482044598554, 0.984807753012208 0.17364817766693033 C0.9747565231431927 0.23065153488787513, 0.9594896789905366 0.2876281729368238, 0.9396926207859084 0.3420201433256687 C0.9198955625812802 0.3964121137145136, 0.8949667667289272 0.44987208893985486, 0.8660254037844387 0.49999999999999994 C0.8370840408399502 0.550127911060145, 0.8032507421352946 0.5984468691667095, 0.766044443118978 0.6427876096865393 C0.7288381441026615 0.687128350206369, 0.687128350206369 0.7288381441026615, 0.6427876096865394 0.766044443118978 C0.5984468691667097 0.8032507421352946, 0.5501279110601452 0.8370840408399502, 0.5000000000000001 0.8660254037844386 C0.44987208893985503 0.8949667667289269, 0.3964121137145138 0.9198955625812801, 0.3420201433256688 0.9396926207859083 C0.28762817293682386 0.9594896789905365, 0.2306515348878752 0.9747565231431927, 0.17364817766693041 0.984807753012208 C0.11664482044598562 0.9948589828812233, 0.057882725888976846 1, 6.123233995736766e-17 1 C-0.05788272588897672 1, -0.11664482044598551 0.9948589828812233, -0.1736481776669303 0.984807753012208 C-0.2306515348878751 0.9747565231431927, -0.2876281729368238 0.9594896789905366, -0.3420201433256687 0.9396926207859084 C-0.3964121137145136 0.9198955625812802, -0.44987208893985475 0.894966766728927, -0.4999999999999998 0.8660254037844387 C-0.5501279110601448 0.8370840408399504, -0.5984468691667094 0.8032507421352948, -0.642787609686539 0.7660444431189783 C-0.6871283502063686 0.7288381441026619, -0.7288381441026611 0.6871283502063694, -0.7660444431189777 0.6427876096865398 C-0.8032507421352942 0.5984468691667102, -0.8370840408399499 0.5501279110601458, -0.8660254037844383 0.5000000000000008 C-0.8949667667289266 0.44987208893985575, -0.9198955625812797 0.39641211371451457, -0.939692620785908 0.3420201433256697 C-0.9594896789905363 0.28762817293682486, -0.9747565231431925 0.2306515348878763, -0.9848077530122078 0.17364817766693158 C-0.9948589828812231 0.11664482044598687, -0.9999999999999999 0.05788272588897817, -1 1.4547323094649232e-15 C-1 -0.05788272588897526, -0.9948589828812235 -0.11664482044598398, -0.9848077530122084 -0.17364817766692872 C-0.9747565231431932 -0.23065153488787346, -0.959489678990537 -0.2876281729368221, -0.939692620785909 -0.342020143325667 C-0.9198955625812809 -0.3964121137145119, -0.8949667667289279 -0.44987208893985314, -0.8660254037844397 -0.4999999999999982 C-0.8370840408399515 -0.5501279110601434, -0.8032507421352959 -0.5984468691667079, -0.7660444431189795 -0.6427876096865376 C-0.728838144102663 -0.6871283502063673, -0.6871283502063705 -0.72883814410266, -0.6427876096865409 -0.7660444431189767 C-0.5984468691667113 -0.8032507421352933, -0.5501279110601469 -0.837084040839949, -0.5000000000000019 -0.8660254037844375 C-0.4498720889398569 -0.8949667667289259, -0.39641211371451585 -0.9198955625812792, -0.34202014332567104 -0.9396926207859075 C-0.28762817293682624 -0.9594896789905358, -0.23065153488787765 -0.9747565231431922, -0.17364817766693294 -0.9848077530122076 C-0.11664482044598823 -0.994858982881223, -0.05788272588897956 -0.9999999999999998, -2.848232278972479e-15 -1 C0.05788272588897387 -1.0000000000000002, 0.1166448204459826 -0.9948589828812237, 0.17364817766692733 -0.9848077530122086 C0.23065153488787207 -0.9747565231431935, 0.2876281729368207 -0.9594896789905376, 0.34202014332566566 -0.9396926207859095 C0.3964121137145106 -0.9198955625812815, 0.44987208893985187 -0.8949667667289286, 0.499999999999997 -0.8660254037844404 C0.5501279110601421 -0.8370840408399521, 0.5984468691667068 -0.8032507421352967, 0.6427876096865365 -0.7660444431189803 C0.6871283502063662 -0.728838144102664, 0.7288381441026589 -0.6871283502063718, 0.7660444431189756 -0.6427876096865422 C0.8032507421352922 -0.5984468691667127, 0.837084040839948 -0.5501279110601485, 0.8660254037844366 -0.5000000000000036 C0.8949667667289252 -0.44987208893985864, 0.9198955625812785 -0.39641211371451757, 0.9396926207859069 -0.34202014332567277 C0.9594896789905353 -0.28762817293682796, 0.9747565231431917 -0.23065153488787946, 0.9848077530122072 -0.17364817766693477 C0.9948589828812228 -0.11664482044599009, 0.9974679588353679 -0.028941362944493815, 1 -4.6858214583300965e-15 C1.0025320411646321 0.02894136294448444, 1.002532041164632 -0.02894136294448917, 1 0"/></g></g><g transform="translate(-3732.5977783203125, -543.2979125976562)" data-look="neo" data-et="node" data-node="true" data-id="n19" id="flowchart-n19-21" class="node default"><rect stroke="url(#gradient)" height="56.61767578125" width="170.0087890625" y="-28.308837890625" x="-85.00439453125" ry="3" data-id="n19" rx="3" style="" class="basic label-container"/><g transform="translate(-41.63671875, -10.5)" style="" class="label"><rect/><foreignObject height="21" width="83.2734375"><div xmlns="http://www.w3.org/1999/xhtml" style="display: table-cell; white-space: normal; line-height: 1.5; max-width: 138.009px; text-align: center;"><span class="nodeLabel"><p>Prepare Data</p></span></div></foreignObject></g></g><g transform="translate(-3739.66943359375, -512.2606811523438)" data-look="neo" data-et="node" data-node="true" data-id="n20" id="flowchart-n20-22" class="node default"><g style="" class="anchor"><path fill="black" stroke-width="0" stroke="none" d="M1 0 C1 0.05788272588897678, 0.9948589828812233 0.11664482044598554, 0.984807753012208 0.17364817766693033 C0.9747565231431927 0.23065153488787513, 0.9594896789905366 0.2876281729368238, 0.9396926207859084 0.3420201433256687 C0.9198955625812802 0.3964121137145136, 0.8949667667289272 0.44987208893985486, 0.8660254037844387 0.49999999999999994 C0.8370840408399502 0.550127911060145, 0.8032507421352946 0.5984468691667095, 0.766044443118978 0.6427876096865393 C0.7288381441026615 0.687128350206369, 0.687128350206369 0.7288381441026615, 0.6427876096865394 0.766044443118978 C0.5984468691667097 0.8032507421352946, 0.5501279110601452 0.8370840408399502, 0.5000000000000001 0.8660254037844386 C0.44987208893985503 0.8949667667289269, 0.3964121137145138 0.9198955625812801, 0.3420201433256688 0.9396926207859083 C0.28762817293682386 0.9594896789905365, 0.2306515348878752 0.9747565231431927, 0.17364817766693041 0.984807753012208 C0.11664482044598562 0.9948589828812233, 0.057882725888976846 1, 6.123233995736766e-17 1 C-0.05788272588897672 1, -0.11664482044598551 0.9948589828812233, -0.1736481776669303 0.984807753012208 C-0.2306515348878751 0.9747565231431927, -0.2876281729368238 0.9594896789905366, -0.3420201433256687 0.9396926207859084 C-0.3964121137145136 0.9198955625812802, -0.44987208893985475 0.894966766728927, -0.4999999999999998 0.8660254037844387 C-0.5501279110601448 0.8370840408399504, -0.5984468691667094 0.8032507421352948, -0.642787609686539 0.7660444431189783 C-0.6871283502063686 0.7288381441026619, -0.7288381441026611 0.6871283502063694, -0.7660444431189777 0.6427876096865398 C-0.8032507421352942 0.5984468691667102, -0.8370840408399499 0.5501279110601458, -0.8660254037844383 0.5000000000000008 C-0.8949667667289266 0.44987208893985575, -0.9198955625812797 0.39641211371451457, -0.939692620785908 0.3420201433256697 C-0.9594896789905363 0.28762817293682486, -0.9747565231431925 0.2306515348878763, -0.9848077530122078 0.17364817766693158 C-0.9948589828812231 0.11664482044598687, -0.9999999999999999 0.05788272588897817, -1 1.4547323094649232e-15 C-1 -0.05788272588897526, -0.9948589828812235 -0.11664482044598398, -0.9848077530122084 -0.17364817766692872 C-0.9747565231431932 -0.23065153488787346, -0.959489678990537 -0.2876281729368221, -0.939692620785909 -0.342020143325667 C-0.9198955625812809 -0.3964121137145119, -0.8949667667289279 -0.44987208893985314, -0.8660254037844397 -0.4999999999999982 C-0.8370840408399515 -0.5501279110601434, -0.8032507421352959 -0.5984468691667079, -0.7660444431189795 -0.6427876096865376 C-0.728838144102663 -0.6871283502063673, -0.6871283502063705 -0.72883814410266, -0.6427876096865409 -0.7660444431189767 C-0.5984468691667113 -0.8032507421352933, -0.5501279110601469 -0.837084040839949, -0.5000000000000019 -0.8660254037844375 C-0.4498720889398569 -0.8949667667289259, -0.39641211371451585 -0.9198955625812792, -0.34202014332567104 -0.9396926207859075 C-0.28762817293682624 -0.9594896789905358, -0.23065153488787765 -0.9747565231431922, -0.17364817766693294 -0.9848077530122076 C-0.11664482044598823 -0.994858982881223, -0.05788272588897956 -0.9999999999999998, -2.848232278972479e-15 -1 C0.05788272588897387 -1.0000000000000002, 0.1166448204459826 -0.9948589828812237, 0.17364817766692733 -0.9848077530122086 C0.23065153488787207 -0.9747565231431935, 0.2876281729368207 -0.9594896789905376, 0.34202014332566566 -0.9396926207859095 C0.3964121137145106 -0.9198955625812815, 0.44987208893985187 -0.8949667667289286, 0.499999999999997 -0.8660254037844404 C0.5501279110601421 -0.8370840408399521, 0.5984468691667068 -0.8032507421352967, 0.6427876096865365 -0.7660444431189803 C0.6871283502063662 -0.728838144102664, 0.7288381441026589 -0.6871283502063718, 0.7660444431189756 -0.6427876096865422 C0.8032507421352922 -0.5984468691667127, 0.837084040839948 -0.5501279110601485, 0.8660254037844366 -0.5000000000000036 C0.8949667667289252 -0.44987208893985864, 0.9198955625812785 -0.39641211371451757, 0.9396926207859069 -0.34202014332567277 C0.9594896789905353 -0.28762817293682796, 0.9747565231431917 -0.23065153488787946, 0.9848077530122072 -0.17364817766693477 C0.9948589828812228 -0.11664482044599009, 0.9974679588353679 -0.028941362944493815, 1 -4.6858214583300965e-15 C1.0025320411646321 0.02894136294448444, 1.002532041164632 -0.02894136294448917, 1 0"/></g></g><g transform="translate(-3736.366943359375, 64.10749816894531)" data-look="neo" data-et="node" data-node="true" data-id="n23" id="flowchart-n23-25" class="node default"><g style="" class="anchor"><path fill="black" stroke-width="0" stroke="none" d="M1 0 C1 0.05788272588897678, 0.9948589828812233 0.11664482044598554, 0.984807753012208 0.17364817766693033 C0.9747565231431927 0.23065153488787513, 0.9594896789905366 0.2876281729368238, 0.9396926207859084 0.3420201433256687 C0.9198955625812802 0.3964121137145136, 0.8949667667289272 0.44987208893985486, 0.8660254037844387 0.49999999999999994 C0.8370840408399502 0.550127911060145, 0.8032507421352946 0.5984468691667095, 0.766044443118978 0.6427876096865393 C0.7288381441026615 0.687128350206369, 0.687128350206369 0.7288381441026615, 0.6427876096865394 0.766044443118978 C0.5984468691667097 0.8032507421352946, 0.5501279110601452 0.8370840408399502, 0.5000000000000001 0.8660254037844386 C0.44987208893985503 0.8949667667289269, 0.3964121137145138 0.9198955625812801, 0.3420201433256688 0.9396926207859083 C0.28762817293682386 0.9594896789905365, 0.2306515348878752 0.9747565231431927, 0.17364817766693041 0.984807753012208 C0.11664482044598562 0.9948589828812233, 0.057882725888976846 1, 6.123233995736766e-17 1 C-0.05788272588897672 1, -0.11664482044598551 0.9948589828812233, -0.1736481776669303 0.984807753012208 C-0.2306515348878751 0.9747565231431927, -0.2876281729368238 0.9594896789905366, -0.3420201433256687 0.9396926207859084 C-0.3964121137145136 0.9198955625812802, -0.44987208893985475 0.894966766728927, -0.4999999999999998 0.8660254037844387 C-0.5501279110601448 0.8370840408399504, -0.5984468691667094 0.8032507421352948, -0.642787609686539 0.7660444431189783 C-0.6871283502063686 0.7288381441026619, -0.7288381441026611 0.6871283502063694, -0.7660444431189777 0.6427876096865398 C-0.8032507421352942 0.5984468691667102, -0.8370840408399499 0.5501279110601458, -0.8660254037844383 0.5000000000000008 C-0.8949667667289266 0.44987208893985575, -0.9198955625812797 0.39641211371451457, -0.939692620785908 0.3420201433256697 C-0.9594896789905363 0.28762817293682486, -0.9747565231431925 0.2306515348878763, -0.9848077530122078 0.17364817766693158 C-0.9948589828812231 0.11664482044598687, -0.9999999999999999 0.05788272588897817, -1 1.4547323094649232e-15 C-1 -0.05788272588897526, -0.9948589828812235 -0.11664482044598398, -0.9848077530122084 -0.17364817766692872 C-0.9747565231431932 -0.23065153488787346, -0.959489678990537 -0.2876281729368221, -0.939692620785909 -0.342020143325667 C-0.9198955625812809 -0.3964121137145119, -0.8949667667289279 -0.44987208893985314, -0.8660254037844397 -0.4999999999999982 C-0.8370840408399515 -0.5501279110601434, -0.8032507421352959 -0.5984468691667079, -0.7660444431189795 -0.6427876096865376 C-0.728838144102663 -0.6871283502063673, -0.6871283502063705 -0.72883814410266, -0.6427876096865409 -0.7660444431189767 C-0.5984468691667113 -0.8032507421352933, -0.5501279110601469 -0.837084040839949, -0.5000000000000019 -0.8660254037844375 C-0.4498720889398569 -0.8949667667289259, -0.39641211371451585 -0.9198955625812792, -0.34202014332567104 -0.9396926207859075 C-0.28762817293682624 -0.9594896789905358, -0.23065153488787765 -0.9747565231431922, -0.17364817766693294 -0.9848077530122076 C-0.11664482044598823 -0.994858982881223, -0.05788272588897956 -0.9999999999999998, -2.848232278972479e-15 -1 C0.05788272588897387 -1.0000000000000002, 0.1166448204459826 -0.9948589828812237, 0.17364817766692733 -0.9848077530122086 C0.23065153488787207 -0.9747565231431935, 0.2876281729368207 -0.9594896789905376, 0.34202014332566566 -0.9396926207859095 C0.3964121137145106 -0.9198955625812815, 0.44987208893985187 -0.8949667667289286, 0.499999999999997 -0.8660254037844404 C0.5501279110601421 -0.8370840408399521, 0.5984468691667068 -0.8032507421352967, 0.6427876096865365 -0.7660444431189803 C0.6871283502063662 -0.728838144102664, 0.7288381441026589 -0.6871283502063718, 0.7660444431189756 -0.6427876096865422 C0.8032507421352922 -0.5984468691667127, 0.837084040839948 -0.5501279110601485, 0.8660254037844366 -0.5000000000000036 C0.8949667667289252 -0.44987208893985864, 0.9198955625812785 -0.39641211371451757, 0.9396926207859069 -0.34202014332567277 C0.9594896789905353 -0.28762817293682796, 0.9747565231431917 -0.23065153488787946, 0.9848077530122072 -0.17364817766693477 C0.9948589828812228 -0.11664482044599009, 0.9974679588353679 -0.028941362944493815, 1 -4.6858214583300965e-15 C1.0025320411646321 0.02894136294448444, 1.002532041164632 -0.02894136294448917, 1 0"/></g></g><g transform="translate(-3836.994140625, -1046.98388671875)" data-look="neo" data-et="node" data-node="true" data-id="n25" id="flowchart-n25-26" class="node default"><g style="" class="anchor"><path fill="black" stroke-width="0" stroke="none" d="M1 0 C1 0.05788272588897678, 0.9948589828812233 0.11664482044598554, 0.984807753012208 0.17364817766693033 C0.9747565231431927 0.23065153488787513, 0.9594896789905366 0.2876281729368238, 0.9396926207859084 0.3420201433256687 C0.9198955625812802 0.3964121137145136, 0.8949667667289272 0.44987208893985486, 0.8660254037844387 0.49999999999999994 C0.8370840408399502 0.550127911060145, 0.8032507421352946 0.5984468691667095, 0.766044443118978 0.6427876096865393 C0.7288381441026615 0.687128350206369, 0.687128350206369 0.7288381441026615, 0.6427876096865394 0.766044443118978 C0.5984468691667097 0.8032507421352946, 0.5501279110601452 0.8370840408399502, 0.5000000000000001 0.8660254037844386 C0.44987208893985503 0.8949667667289269, 0.3964121137145138 0.9198955625812801, 0.3420201433256688 0.9396926207859083 C0.28762817293682386 0.9594896789905365, 0.2306515348878752 0.9747565231431927, 0.17364817766693041 0.984807753012208 C0.11664482044598562 0.9948589828812233, 0.057882725888976846 1, 6.123233995736766e-17 1 C-0.05788272588897672 1, -0.11664482044598551 0.9948589828812233, -0.1736481776669303 0.984807753012208 C-0.2306515348878751 0.9747565231431927, -0.2876281729368238 0.9594896789905366, -0.3420201433256687 0.9396926207859084 C-0.3964121137145136 0.9198955625812802, -0.44987208893985475 0.894966766728927, -0.4999999999999998 0.8660254037844387 C-0.5501279110601448 0.8370840408399504, -0.5984468691667094 0.8032507421352948, -0.642787609686539 0.7660444431189783 C-0.6871283502063686 0.7288381441026619, -0.7288381441026611 0.6871283502063694, -0.7660444431189777 0.6427876096865398 C-0.8032507421352942 0.5984468691667102, -0.8370840408399499 0.5501279110601458, -0.8660254037844383 0.5000000000000008 C-0.8949667667289266 0.44987208893985575, -0.9198955625812797 0.39641211371451457, -0.939692620785908 0.3420201433256697 C-0.9594896789905363 0.28762817293682486, -0.9747565231431925 0.2306515348878763, -0.9848077530122078 0.17364817766693158 C-0.9948589828812231 0.11664482044598687, -0.9999999999999999 0.05788272588897817, -1 1.4547323094649232e-15 C-1 -0.05788272588897526, -0.9948589828812235 -0.11664482044598398, -0.9848077530122084 -0.17364817766692872 C-0.9747565231431932 -0.23065153488787346, -0.959489678990537 -0.2876281729368221, -0.939692620785909 -0.342020143325667 C-0.9198955625812809 -0.3964121137145119, -0.8949667667289279 -0.44987208893985314, -0.8660254037844397 -0.4999999999999982 C-0.8370840408399515 -0.5501279110601434, -0.8032507421352959 -0.5984468691667079, -0.7660444431189795 -0.6427876096865376 C-0.728838144102663 -0.6871283502063673, -0.6871283502063705 -0.72883814410266, -0.6427876096865409 -0.7660444431189767 C-0.5984468691667113 -0.8032507421352933, -0.5501279110601469 -0.837084040839949, -0.5000000000000019 -0.8660254037844375 C-0.4498720889398569 -0.8949667667289259, -0.39641211371451585 -0.9198955625812792, -0.34202014332567104 -0.9396926207859075 C-0.28762817293682624 -0.9594896789905358, -0.23065153488787765 -0.9747565231431922, -0.17364817766693294 -0.9848077530122076 C-0.11664482044598823 -0.994858982881223, -0.05788272588897956 -0.9999999999999998, -2.848232278972479e-15 -1 C0.05788272588897387 -1.0000000000000002, 0.1166448204459826 -0.9948589828812237, 0.17364817766692733 -0.9848077530122086 C0.23065153488787207 -0.9747565231431935, 0.2876281729368207 -0.9594896789905376, 0.34202014332566566 -0.9396926207859095 C0.3964121137145106 -0.9198955625812815, 0.44987208893985187 -0.8949667667289286, 0.499999999999997 -0.8660254037844404 C0.5501279110601421 -0.8370840408399521, 0.5984468691667068 -0.8032507421352967, 0.6427876096865365 -0.7660444431189803 C0.6871283502063662 -0.728838144102664, 0.7288381441026589 -0.6871283502063718, 0.7660444431189756 -0.6427876096865422 C0.8032507421352922 -0.5984468691667127, 0.837084040839948 -0.5501279110601485, 0.8660254037844366 -0.5000000000000036 C0.8949667667289252 -0.44987208893985864, 0.9198955625812785 -0.39641211371451757, 0.9396926207859069 -0.34202014332567277 C0.9594896789905353 -0.28762817293682796, 0.9747565231431917 -0.23065153488787946, 0.9848077530122072 -0.17364817766693477 C0.9948589828812228 -0.11664482044599009, 0.9974679588353679 -0.028941362944493815, 1 -4.6858214583300965e-15 C1.0025320411646321 0.02894136294448444, 1.002532041164632 -0.02894136294448917, 1 0"/></g></g><g transform="translate(-3580.8212280273438, -935.1075558662415)" data-look="neo" data-et="node" data-node="true" data-id="n8" id="flowchart-n8-28" class="icon-shape default"><g transform="translate(0,-16.5)"><path fill="none" stroke-width="0" stroke="none" d="M-94 -94 L94 -94 L94 94 L-94 94"/></g><g transform="translate(-60.359375,85.5)" style="" class="label"><rect/><foreignObject height="25" width="120.71875"><div class="labelBkg" xmlns="http://www.w3.org/1999/xhtml" style="display: table-cell; white-space: normal; line-height: 1.5; max-width: 200px; text-align: center;"><span class="nodeLabel"><p>Order Processiong</p></span></div></foreignObject></g><g><path fill="transparent" stroke-width="0" stroke="none" d="M-94 -110.5 L94 -110.5 L94 110.5 L-94 110.5"/></g><g style="color : #00C853;" transform="translate(-94.00000190734863,-110.50000524520874)"><g><svg viewBox="0 0 48 48" height="188" width="188" xmlns="http://www.w3.org/2000/svg"><path style="fill: #00C853" d="M15 20h13v-2H15zm0 14h13v-2H15zm0-7h17v-2H15zm-5 17 .007-40H28v9a1 1 0 001 1h9l.025 30zM30 5.414 36.586 12H30zm9.707 6.879-10-10A1 1 0 0029 2H10c-1.178 0-2 .822-2 2v40c0 1.14.859 2 2 2h28.025C39.151 46 40 45.14 40 44V13a1 1 0 00-.293-.707" fill-rule="evenodd" fill="#232F3D"/></svg></g></g></g></g><g class="edgePaths"><path marker-end="url(#export-svg_flowchart-v2-pointEnd-margin)" data-points="W3sieCI6LTM3MzcuMjAyMzc2MjA5ODg5LCJ5IjotNDQ1LjA4MTg5MzkyMDg5ODksInBvcyI6ImIifSx7IngiOi0zNzM3LjIwMjM3NjIwOTg4OSwieSI6LTQzMi40NjQ5Njc5MjA5MTk5fSx7IngiOi0zNzM3LjcwMjQyNzI5NjkxNjUsInkiOi00MzIuNDY0OTY3OTIwOTE5OX0seyJ4IjotMzczNy43MDI0MjcyOTY5MTY1LCJ5IjotNDE5Ljg0ODA0MTkyMDk0MDksInBvcyI6InQifV0=" data-id="L_ExtractOneTimeItems_CheckSubscriptionItems_0" data-et="edge" data-edge="true" style="stroke-dasharray: 0 0 12.545536041259766 9; stroke-dashoffset: 0;;" class="edge-thickness-normal edge-pattern-solid edge-thickness-normal edge-pattern-solid flowchart-link" id="L_ExtractOneTimeItems_CheckSubscriptionItems_0" d="M-3737.202376209889,-445.0818939208989L-3737.202376209889,-432.71499346443375Q-3737.202376209889,-432.4649679209199 -3737.4524017534027,-432.4649679209199L-3737.4524017534027,-432.4649679209199Q-3737.7024272969165,-432.4649679209199 -3737.7024272969165,-432.21494237740603L-3737.7024272969165,-423.8480419209409"/><path marker-end="url(#export-svg_flowchart-v2-pointEnd-margin)" data-points="W3sieCI6LTM4MTIuNDQ3NTAxMDI5NjEyLCJ5IjotMzQ1LjEwMTUzODUwNTE5Njk3LCJwb3MiOiJsIn0seyJ4IjotMzg3MC41Mjc5ODAyNTExMzQsInkiOi0zNDUuMTAxNTM4NTA1MTk2OTd9LHsieCI6LTM4NzAuNTI3OTgwMjUxMTM0LCJ5IjotMzQ0LjYwMTA0ODU1NTUzNTh9LHsieCI6LTM5MjguNjA4NDU5NDcyNjU2MiwieSI6LTM0NC42MDEwNDg1NTU1MzU4LCJwb3MiOiJyIn1d" data-id="L_CheckSubscriptionItems_ProcessSubscriptions_0" data-et="edge" data-edge="true" style="stroke-dasharray: 0 0 103.47299194335938 9; stroke-dashoffset: 0;;" class="edge-thickness-normal edge-pattern-solid edge-thickness-normal edge-pattern-solid flowchart-link" id="L_CheckSubscriptionItems_ProcessSubscriptions_0" d="M-3812.447501029612,-345.10153850519697L-3870.2777352763032,-345.10153850519697Q-3870.527980251134,-345.10153850519697 -3870.527980251134,-344.8512935303664L-3870.527980251134,-344.8512935303664Q-3870.527980251134,-344.6010485555358 -3870.778225225965,-344.6010485555358L-3924.6084594726562,-344.6010485555358"/><path marker-end="url(#export-svg_flowchart-v2-pointEnd-margin)" data-points="W3sieCI6LTM3MzcuNzAyNTc1NjgzNTkzOCwieSI6LTI3MC4zNTY2MTMxNTkxODA2NSwicG9zIjoiYiJ9LHsieCI6LTM3MzcuNzAyNTc1NjgzNTkzOCwieSI6LTE4Ni4xOTYzMDQzMjEyODkzfSx7IngiOi0zNzM3LjcwMjU3NTY4MzU5MzgsInkiOi0xODYuMTk2MzA0MzIxMjg5M30seyJ4IjotMzczNy43MDI1NzU2ODM1OTM4LCJ5IjotMTAyLjAzNTk5NTQ4MzM5NzksInBvcyI6InQifV0=" data-id="L_CheckSubscriptionItems_AddOneTimeItems_0" data-et="edge" data-edge="true" style="stroke-dasharray: 0 0 155.3206329345703 9; stroke-dashoffset: 0;;" class="edge-thickness-normal edge-pattern-solid edge-thickness-normal edge-pattern-solid flowchart-link" id="L_CheckSubscriptionItems_AddOneTimeItems_0" d="M-3737.7025756835938,-270.35661315918065L-3737.7025756835938,-186.1963043212893L-3737.7025756835938,-186.1963043212893L-3737.7025756835938,-106.0359954833979"/><path marker-end="url(#export-svg_flowchart-v2-pointEnd-margin)" data-points="W3sieCI6LTQwMjcuNzQ2MDU0NjcxODMzNSwieSI6LTMyMi4xMDA2MzE3MTM4NjY3MywicG9zIjoiYiJ9LHsieCI6LTQwMjcuNzQ2MDU0NjcxODMzNSwieSI6LTI5Ny40MjQxMTgwNDE5OTE3M30seyJ4IjotNDAyNy40OTIxMzUwMjU0MzMsInkiOi0yOTcuNDI0MTE4MDQxOTkxNzN9LHsieCI6LTQwMjcuNDkyMTM1MDI1NDMzLCJ5IjotMjcyLjc0NzYwNDM3MDExNjczLCJwb3MiOiJ0In1d" data-id="L_ProcessSubscriptions_MaybeAddSignupFees_0" data-et="edge" data-edge="true" style="stroke-dasharray: 0 0 36.51155090332031 9; stroke-dashoffset: 0;;" class="edge-thickness-normal edge-pattern-solid edge-thickness-normal edge-pattern-solid flowchart-link" id="L_ProcessSubscriptions_MaybeAddSignupFees_0" d="M-4027.7460546718335,-322.10063171386673L-4027.7460546718335,-297.5510778651919Q-4027.7460546718335,-297.42411804199173 -4027.6190948486333,-297.42411804199173L-4027.6190948486333,-297.42411804199173Q-4027.492135025433,-297.42411804199173 -4027.492135025433,-297.29715821879154L-4027.492135025433,-276.74760437011673"/><path marker-end="url(#export-svg_flowchart-v2-pointEnd-margin)" data-points="W3sieCI6LTQwMjcuMzc2NDAyMTM5NDk1LCJ5IjotMjI3Ljc0NzYwNDM3MDExNjczLCJwb3MiOiJiIn0seyJ4IjotNDAyNy4zNzY0MDIxMzk0OTUsInkiOi0yMTMuODQ0NDY3MTYzMDg1NDh9LHsieCI6LTQwMjcuMzc2NDM3NzkxNDM3NiwieSI6LTIxMy44NDQ0NjcxNjMwODU0OH0seyJ4IjotNDAyNy4zNzY0Mzc3OTE0Mzc2LCJ5IjotMTk5Ljk0MTMyOTk1NjA1NDIzLCJwb3MiOiJ0In1d" data-id="L_MaybeAddSignupFees_UpdateDiscountedSubscriptions_0" data-et="edge" data-edge="true" style="stroke-dasharray: 0 0 14.8062744140625 9; stroke-dashoffset: 0;;" class="edge-thickness-normal edge-pattern-solid edge-thickness-normal edge-pattern-solid flowchart-link" id="L_MaybeAddSignupFees_UpdateDiscountedSubscriptions_0" d="M-4027.376402139495,-227.74760437011673L-4027.376402139495,-213.8444849890568Q-4027.376402139495,-213.84446716308548 -4027.376419965466,-213.84446716308548L-4027.376419965466,-213.84446716308548Q-4027.3764377914376,-213.84446716308548 -4027.3764377914376,-213.84444933711416L-4027.3764377914376,-203.94132995605423"/><path marker-end="url(#export-svg_flowchart-v2-pointEnd-margin)" data-points="W3sieCI6LTQwMjcuMzc2NDgwMTAyNTM5LCJ5IjotMTMzLjk0MTMyOTk1NjA1NDIzLCJwb3MiOiJiIn0seyJ4IjotNDAyNy4zNzY0ODAxMDI1MzksInkiOi0xMTcuNTE1MzM1MDgzMDA3NTl9LHsieCI6LTQwMjcuMzc2NDgwMTAyNTM5LCJ5IjotMTE3LjUxNTMzNTA4MzAwNzU5fSx7IngiOi00MDI3LjM3NjQ4MDEwMjUzOSwieSI6LTEwMS4wODkzNDAyMDk5NjA5NCwicG9zIjoidCJ9XQ==" data-id="L_UpdateDiscountedSubscriptions_AddSubscriptionsToOrder_0" data-et="edge" data-edge="true" style="stroke-dasharray: 0 0 19.85198974609375 9; stroke-dashoffset: 0;;" class="edge-thickness-normal edge-pattern-solid edge-thickness-normal edge-pattern-solid flowchart-link" id="L_UpdateDiscountedSubscriptions_AddSubscriptionsToOrder_0" d="M-4027.376480102539,-133.94132995605423L-4027.376480102539,-117.51533508300759L-4027.376480102539,-117.51533508300759L-4027.376480102539,-105.08934020996094"/><path marker-end="url(#export-svg_flowchart-v2-pointEnd-margin)" data-points="W3sieCI6LTM5MzAuMDU2NDU3NTE5NTMxMiwieSI6LTc4LjczOTE0MTc2MjE4Nzg4LCJwb3MiOiJyIn0seyJ4IjotMzg4MS45Nzg5NzQ1MzM2NjY2LCJ5IjotNzguNzM5MTQxNzYyMTg3ODh9LHsieCI6LTM4ODEuOTc4OTc0NTMzNjY2NiwieSI6LTc5LjM4NzkxOTYxNDM1NzY4fSx7IngiOi0zODMzLjkwMTQ5MTU0NzgwMTUsInkiOi03OS4zODc5MTk2MTQzNTc2OCwicG9zIjoibCJ9XQ==" data-id="L_AddSubscriptionsToOrder_AddOneTimeItems_0" data-et="edge" data-edge="true" style="stroke-dasharray: 0 0 83.55928039550781 9; stroke-dashoffset: 0;;" class="edge-thickness-normal edge-pattern-solid edge-thickness-normal edge-pattern-solid flowchart-link" id="L_AddSubscriptionsToOrder_AddOneTimeItems_0" d="M-3930.0564575195312,-78.73914176218788L-3882.3033634597514,-78.73914176218788Q-3881.9789745336666,-78.73914176218788 -3881.9789745336666,-79.06353068827278L-3881.9789745336666,-79.06353068827278Q-3881.9789745336666,-79.38791961435768 -3881.654585607582,-79.38791961435768L-3837.9014915478015,-79.38791961435768"/><path marker-end="url(#export-svg_flowchart-v2-pointEnd-margin)" data-points="W3sieCI6LTM4MDcuMjQ1NzAyMzQ4OTUzMywieSI6LTc0MC45ODI5NTA2MDUxNDg2LCJwb3MiOiJiIn0seyJ4IjotMzgwNy4yNDU3MDIzNDg5NTMzLCJ5IjotNjg5Ljg2NDA1Njc4NDUwOH0seyJ4IjotMzc0NC40OTgyMDU1MjA0OTMsInkiOi02ODkuODY0MDU2Nzg0NTA4fSx7IngiOi0zNzQ0LjQ5ODIwNTUyMDQ5MywieSI6LTYzOC43NDUxNjI5NjM4NjcyLCJwb3MiOiJ0In1d" data-id="L_CheckStock_ProductsValid_0" data-et="edge" data-edge="true" style="stroke-dasharray: 0 0 146.65673828125 9; stroke-dashoffset: 0;;" class="edge-thickness-normal edge-pattern-solid edge-thickness-normal edge-pattern-solid flowchart-link" id="L_CheckStock_ProductsValid_0" d="M-3807.2457023489533,-740.9829506051486L-3807.2457023489533,-696.9351245963735Q-3807.2457023489533,-689.864056784508 -3800.174634537088,-689.864056784508L-3751.569273332358,-689.864056784508Q-3744.498205520493,-689.864056784508 -3744.498205520493,-682.7929889726424L-3744.498205520493,-642.7451629638672"/><path marker-end="url(#export-svg_flowchart-v2-pointEnd-margin)" data-points="W3sieCI6LTM4MzcuMjg2NTAyOTkyOTEwOCwieSI6LTk0NS45NDUyMzYyMDYwNTQ3LCJwb3MiOiJiIn0seyJ4IjotMzgzNy4yODY1MDI5OTI5MTA4LCJ5IjotOTA5LjAyMDMzNDIzODg2NTJ9LHsieCI6LTM4MzcuODgxMDYxNTQ0MTM2LCJ5IjotOTA5LjAyMDMzNDIzODg2NTJ9LHsieCI6LTM4MzcuODgxMDYxNTQ0MTM2LCJ5IjotODcyLjA5NTQzMjI3MTY3NTcsInBvcyI6InQifV0=" data-id="L_CheckProductExists_CheckStock_0" data-et="edge" data-edge="true" style="stroke-dasharray: 0 0 61.22038269042969 9; stroke-dashoffset: 0;;" class="edge-thickness-normal edge-pattern-solid edge-thickness-normal edge-pattern-solid flowchart-link" id="L_CheckProductExists_CheckStock_0" d="M-3837.2865029929108,-945.9452362060547L-3837.2865029929108,-909.3176135144779Q-3837.2865029929108,-909.0203342388652 -3837.5837822685235,-909.0203342388652L-3837.5837822685235,-909.0203342388652Q-3837.881061544136,-909.0203342388652 -3837.881061544136,-908.7230549632525L-3837.881061544136,-876.0954322716757"/><path marker-end="url(#export-svg_flowchart-v2-pointEnd-margin)" data-points="W3sieCI6LTM4ODUuMzQyMTQ1MDU3NDE5LCJ5IjotNzU3LjYwMjk2MzUzODg2NSwicG9zIjoibCJ9LHsieCI6LTQwMjkuODAyNzA3MzM3MzU1NSwieSI6LTc1Ny42MDI5NjM1Mzg4NjV9LHsieCI6LTQwMjkuODAyNzA3MzM3MzU1NSwieSI6LTY1NC4xOTgwNDM4MjMyNDIyLCJwb3MiOiJ0In1d" data-id="L_CheckStock_ReturnError_0" data-et="edge" data-edge="true" style="stroke-dasharray: 0 0 232.20156860351562 9; stroke-dashoffset: 0;;" class="edge-thickness-normal edge-pattern-solid edge-thickness-normal edge-pattern-solid flowchart-link" id="L_CheckStock_ReturnError_0" d="M-3885.342145057419,-757.602963538865L-4022.73163952549,-757.602963538865Q-4029.8027073373555,-757.602963538865 -4029.8027073373555,-750.5318957269994L-4029.8027073373555,-658.1980438232422"/><path marker-end="url(#export-svg_flowchart-v2-pointEnd-margin)" data-points="W3sieCI6LTM3MzUuNjgwNjU0NzUwNzkyLCJ5IjotNTkyLjg4MzgzODkxNDkzMjMsInBvcyI6ImIiLCJjb21wdXRlZEJ5YVN0YXIiOnRydWV9LHsieCI6LTM3MzQuMzk5NzI2MzkyNzE2LCJ5IjotNTcxLjYwNjc1MDQ4ODI4MTIsInBvcyI6InQifV0=" data-id="L_n17_n19_0" data-et="edge" data-edge="true" style="stroke-dasharray: 0 0 8.315593719482422 9; stroke-dashoffset: 0;;" class="edge-thickness-normal edge-pattern-solid edge-thickness-normal edge-pattern-solid flowchart-link" id="L_n17_n19_0" d="M-3735.680654750792,-592.8838389149323L-3734.64010014737,-575.5995215132805"/><path marker-end="url(#export-svg_flowchart-v2-pointEnd-margin)" data-points="W3sieCI6LTM3MzkuNTQwMjU2OTAyODQyLCJ5IjotNTExLjI2OTA1OTU1OTkzNzYsInBvcyI6ImIiLCJjb21wdXRlZEJ5YVN0YXIiOnRydWV9LHsieCI6LTM3MzguNDQ0NzQwOTAwMDk0LCJ5IjotNDkwLjA4MTY0OTc4MDI3MzksInBvcyI6InQifV0=" data-id="L_n20_ExtractOneTimeItems_0" data-et="edge" data-edge="true" style="stroke-dasharray: 0 0 8.215713500976562 9; stroke-dashoffset: 0;;" class="edge-thickness-normal edge-pattern-solid edge-thickness-normal edge-pattern-solid flowchart-link" id="L_n20_ExtractOneTimeItems_0" d="M-3739.540256902842,-511.2690595599376L-3738.6512889411824,-494.07631345907373"/><path marker-end="url(#export-svg_flowchart-v2-pointEnd-margin)" data-points="W3sieCI6LTM3MzcuNTcxMjI2ODc1Mzc5NiwieSI6LTU3LjAzNTk5NTQ4MzM5ODA0LCJwb3MiOiJiIn0seyJ4IjotMzczNi4zNzI3ODA5ODQ3MTUsInkiOjYzLjEwNzUxNTIwODAyNTI4LCJwb3MiOiJ0In1d" data-id="L_AddOneTimeItems_n23_0" data-et="edge" data-edge="true" style="stroke-dasharray: 0 0 107.14949035644531 9; stroke-dashoffset: 0;;" class="edge-thickness-normal edge-pattern-solid edge-thickness-normal edge-pattern-solid flowchart-link" id="L_AddOneTimeItems_n23_0" d="M-3737.5712268753796,-57.03599548339804L-3736.412679478233,59.10771419919809"/><path marker-end="url(#export-svg_flowchart-v2-pointEnd-margin)" data-points="W3sieCI6LTM4MzYuOTk3MzUwNzA4OTUxLCJ5IjotMTA0NS45ODM4OTE4NzEwODI3LCJwb3MiOiJiIn0seyJ4IjotMzgzNy4yMTI1NTE1MzAzODQsInkiOi05NzguOTQ1MjM2MjA2MDU0NywicG9zIjoidCJ9XQ==" data-id="L_n25_CheckProductExists_0" data-et="edge" data-edge="true" style="stroke-dasharray: 0 0 54.03902053833008 9; stroke-dashoffset: 0;;" class="edge-thickness-normal edge-pattern-solid edge-thickness-normal edge-pattern-solid flowchart-link" id="L_n25_CheckProductExists_0" d="M-3836.997350708951,-1045.9838918710827L-3837.1997111945802,-982.9452155967236"/></g><g class="edgeLabels"><g class="edgeLabel"><g transform="translate(0, 0)" data-id="L_ExtractOneTimeItems_CheckSubscriptionItems_0" class="label"><foreignObject height="0" width="0"><div class="labelBkg" xmlns="http://www.w3.org/1999/xhtml" style="display: table-cell; white-space: normal; line-height: 1.5; max-width: 200px; text-align: center;"><span class="edgeLabel"></span></div></foreignObject></g></g><g transform="translate(-3870.52798, -344.85129)" class="edgeLabel"><g transform="translate(-11.421875, -10.5)" data-id="L_CheckSubscriptionItems_ProcessSubscriptions_0" class="label"><foreignObject height="21" width="22.84375"><div class="labelBkg" xmlns="http://www.w3.org/1999/xhtml" style="display: table-cell; white-space: normal; line-height: 1.5; max-width: 200px; text-align: center;"><span class="edgeLabel"><p>Yes</p></span></div></foreignObject></g></g><g transform="translate(-3737.70258, -186.1963)" class="edgeLabel"><g transform="translate(-8.94921875, -10.5)" data-id="L_CheckSubscriptionItems_AddOneTimeItems_0" class="label"><foreignObject height="21" width="17.8984375"><div class="labelBkg" xmlns="http://www.w3.org/1999/xhtml" style="display: table-cell; white-space: normal; line-height: 1.5; max-width: 200px; text-align: center;"><span class="edgeLabel"><p>No</p></span></div></foreignObject></g></g><g class="edgeLabel"><g transform="translate(0, 0)" data-id="L_ProcessSubscriptions_MaybeAddSignupFees_0" class="label"><foreignObject height="0" width="0"><div class="labelBkg" xmlns="http://www.w3.org/1999/xhtml" style="display: table-cell; white-space: normal; line-height: 1.5; max-width: 200px; text-align: center;"><span class="edgeLabel"></span></div></foreignObject></g></g><g class="edgeLabel"><g transform="translate(0, 0)" data-id="L_MaybeAddSignupFees_UpdateDiscountedSubscriptions_0" class="label"><foreignObject height="0" width="0"><div class="labelBkg" xmlns="http://www.w3.org/1999/xhtml" style="display: table-cell; white-space: normal; line-height: 1.5; max-width: 200px; text-align: center;"><span class="edgeLabel"></span></div></foreignObject></g></g><g class="edgeLabel"><g transform="translate(0, 0)" data-id="L_UpdateDiscountedSubscriptions_AddSubscriptionsToOrder_0" class="label"><foreignObject height="0" width="0"><div class="labelBkg" xmlns="http://www.w3.org/1999/xhtml" style="display: table-cell; white-space: normal; line-height: 1.5; max-width: 200px; text-align: center;"><span class="edgeLabel"></span></div></foreignObject></g></g><g class="edgeLabel"><g transform="translate(0, 0)" data-id="L_AddSubscriptionsToOrder_AddOneTimeItems_0" class="label"><foreignObject height="0" width="0"><div class="labelBkg" xmlns="http://www.w3.org/1999/xhtml" style="display: table-cell; white-space: normal; line-height: 1.5; max-width: 200px; text-align: center;"><span class="edgeLabel"></span></div></foreignObject></g></g><g transform="translate(-3775.87195, -689.86406)" class="edgeLabel"><g transform="translate(-10.89453125, -10.5)" data-id="L_CheckStock_ProductsValid_0" class="label"><foreignObject height="21" width="21.7890625"><div class="labelBkg" xmlns="http://www.w3.org/1999/xhtml" style="display: table-cell; white-space: normal; line-height: 1.5; max-width: 200px; text-align: center;"><span class="edgeLabel"><p>yes</p></span></div></foreignObject></g></g><g transform="translate(-3837.58378, -909.02033)" class="edgeLabel"><g transform="translate(-10.89453125, -10.5)" data-id="L_CheckProductExists_CheckStock_0" class="label"><foreignObject height="21" width="21.7890625"><div class="labelBkg" xmlns="http://www.w3.org/1999/xhtml" style="display: table-cell; white-space: normal; line-height: 1.5; max-width: 200px; text-align: center;"><span class="edgeLabel"><p>yes</p></span></div></foreignObject></g></g><g transform="translate(-4009.27489, -757.60296)" class="edgeLabel"><g transform="translate(-8.94921875, -10.5)" data-id="L_CheckStock_ReturnError_0" class="label"><foreignObject height="21" width="17.8984375"><div class="labelBkg" xmlns="http://www.w3.org/1999/xhtml" style="display: table-cell; white-space: normal; line-height: 1.5; max-width: 200px; text-align: center;"><span class="edgeLabel"><p>No</p></span></div></foreignObject></g></g><g class="edgeLabel"><g transform="translate(0, 0)" data-id="L_n17_n19_0" class="label"><foreignObject height="0" width="0"><div class="labelBkg" xmlns="http://www.w3.org/1999/xhtml" style="display: table-cell; white-space: normal; line-height: 1.5; max-width: 200px; text-align: center;"><span class="edgeLabel"></span></div></foreignObject></g></g><g class="edgeLabel"><g transform="translate(0, 0)" data-id="L_n20_ExtractOneTimeItems_0" class="label"><foreignObject height="0" width="0"><div class="labelBkg" xmlns="http://www.w3.org/1999/xhtml" style="display: table-cell; white-space: normal; line-height: 1.5; max-width: 200px; text-align: center;"><span class="edgeLabel"></span></div></foreignObject></g></g><g transform="translate(-3736.972, 3.03576)" class="edgeLabel"><g transform="translate(-61.86328125, -10.5)" data-id="L_AddOneTimeItems_n23_0" class="label"><foreignObject height="21" width="123.7265625"><div class="labelBkg" xmlns="http://www.w3.org/1999/xhtml" style="display: table-cell; white-space: normal; line-height: 1.5; max-width: 200px; text-align: center;"><span class="edgeLabel"><p>Go to order process</p></span></div></foreignObject></g></g><g class="edgeLabel"><g transform="translate(0, 0)" data-id="L_n25_CheckProductExists_0" class="label"><foreignObject height="0" width="0"><div class="labelBkg" xmlns="http://www.w3.org/1999/xhtml" style="display: table-cell; white-space: normal; line-height: 1.5; max-width: 200px; text-align: center;"><span class="edgeLabel"></span></div></foreignObject></g></g></g></g></g><defs><filter width="130%" height="130%" id="drop-shadow"><feDropShadow flood-color="#FFFFFF" flood-opacity="0.06" stdDeviation="0" dy="4" dx="4"/></filter></defs><defs><filter width="150%" height="150%" id="drop-shadow-small"><feDropShadow flood-color="#FFFFFF" flood-opacity="0.06" stdDeviation="0" dy="2" dx="2"/></filter></defs><linearGradient y2="0%" x2="100%" y1="0%" x1="0%" gradientUnits="objectBoundingBox" id="export-svg-gradient"><stop stop-opacity="1" stop-color="#0042eb" offset="0%"/><stop stop-opacity="1" stop-color="#eb0042" offset="100%"/></linearGradient></svg>